<svg version="1.1" id="Layer_1" xmlns="http://www.w3.org/2000/svg" xmlns:xlink="http://www.w3.org/1999/xlink" x="0px" y="0px"
	 width="100%" viewBox="0 0 192 192" enable-background="new 0 0 192 192" xml:space="preserve">
<path fill="#014B65" opacity="1.000000" stroke="none" 
	d="
M26.999998,193.000000 
	C19.979052,193.000000 12.958103,193.000000 5.469038,192.531342 
	C4.999546,178.160919 4.981326,164.259125 5.010689,150.357422 
	C5.016722,147.501480 4.889568,144.877960 1.000000,145.000000 
	C1.000000,138.978851 1.000000,132.957703 1.359306,126.534882 
	C3.289631,129.064941 4.860651,131.996658 6.402122,134.873230 
	C6.927470,134.284698 7.831908,133.271515 8.876626,132.101166 
	C10.730201,133.513031 12.358841,134.753555 13.996353,136.364426 
	C13.766485,141.793472 18.877924,139.906967 20.918283,142.463379 
	C20.977762,144.585144 21.011599,146.283936 21.029343,148.417313 
	C21.020185,150.330795 20.807474,151.855576 21.103872,153.273972 
	C21.339085,154.399551 22.197687,155.394836 22.779499,156.447983 
	C23.511709,155.552078 24.688513,154.741287 24.879824,153.741852 
	C25.233820,151.892517 25.010963,149.932785 25.035921,147.579376 
	C25.064959,145.091980 25.086456,143.044235 25.315914,140.756073 
	C25.386742,139.350876 25.249611,138.186127 25.121237,136.570770 
	C25.119812,133.424194 25.109631,130.728195 25.129040,127.573097 
	C25.145872,123.750809 25.133116,120.387627 25.162380,116.555817 
	C25.159672,109.387955 25.114939,102.688728 25.113937,95.593857 
	C25.177345,94.137398 25.197020,93.076584 25.412327,91.747147 
	C25.935381,89.952515 26.262802,88.426491 26.741482,87.333229 
	C26.987766,90.388435 27.082792,93.010887 27.126568,95.975494 
	C27.083958,99.881798 27.092600,103.445953 27.067894,107.477051 
	C27.064442,115.284645 27.094339,122.625305 27.067734,130.424133 
	C27.033827,134.243881 27.056423,137.605438 27.041496,141.432343 
	C27.015741,146.254440 27.027510,150.611191 27.021416,155.436462 
	C27.638676,161.112595 25.474180,166.738892 28.531525,171.584213 
	C29.256308,171.594147 29.981091,171.604080 30.705873,171.613998 
	C31.067335,166.365524 31.428797,161.117035 31.827055,155.416565 
	C31.798424,150.603867 31.732994,146.243149 31.733475,141.435211 
	C31.722589,137.292526 31.645790,133.597061 31.640440,129.445435 
	C31.838017,122.722008 31.964144,116.454742 32.350849,110.517807 
	C32.808922,112.223328 33.006420,113.598503 33.159042,115.439308 
	C33.124184,123.589867 33.134201,131.274811 33.095657,139.410126 
	C33.062061,142.561401 33.077034,145.262314 33.059551,148.360931 
	C33.745010,150.341949 34.462921,151.925217 35.180832,153.508499 
	C36.080750,151.967850 37.002506,150.439133 37.856598,148.873489 
	C37.982197,148.643265 37.786598,148.237839 37.778301,147.468781 
	C37.757580,144.320770 37.698162,141.617477 37.697090,138.455139 
	C37.883453,133.368637 38.011463,128.741165 38.411194,124.361732 
	C38.856613,125.065773 39.030308,125.521767 39.155334,126.436913 
	C39.078465,129.049500 38.747211,131.254181 39.100277,133.343185 
	C39.523022,135.844467 40.530174,138.246994 41.284233,140.692291 
	C42.215099,138.303680 43.145969,135.915070 44.358574,133.741058 
	C51.758793,141.392883 58.877285,148.830093 65.980637,156.611679 
	C65.452591,158.151627 64.939674,159.347183 64.426758,160.542755 
	C63.863682,152.940475 56.622555,156.585175 53.758205,152.240936 
	C53.336834,154.720627 53.186760,155.983902 52.901119,157.215759 
	C51.916351,161.462631 50.477493,165.704056 55.900311,168.425720 
	C56.387150,168.670074 56.002377,172.951111 54.906570,173.680038 
	C47.080723,178.885818 38.914864,183.577148 30.983719,188.630737 
	C29.379221,189.653076 28.313894,191.521591 26.999998,193.000000 
M7.002213,171.082291 
	C7.580372,172.261292 8.158532,173.440292 8.736691,174.619293 
	C9.482237,173.504898 10.841226,172.407715 10.873017,171.273315 
	C11.068322,164.304398 11.025801,157.325897 10.891596,150.353867 
	C10.871498,149.309799 9.953635,148.283035 9.451081,147.248260 
	C8.886628,147.328079 8.322175,147.407883 7.757722,147.487701 
	C6.167270,154.942993 7.375189,162.621689 7.002213,171.082291 
z"/>
<path fill="#00546E" opacity="1.000000" stroke="none" 
	d="
M115.000000,193.000000 
	C99.312439,193.000000 83.624878,193.000000 67.385361,192.660156 
	C63.289700,186.810608 63.789478,170.670151 68.156799,167.266632 
	C68.684563,170.118698 69.155228,172.662201 69.708168,175.650360 
	C70.974609,172.872162 71.964691,170.700226 72.954773,168.528275 
	C74.048286,170.086029 75.141800,171.643799 76.240013,173.204071 
	C77.011230,171.889603 77.777748,170.572617 79.311272,167.937820 
	C80.413681,171.249680 81.068802,173.217789 81.992378,175.992386 
	C83.402771,172.477676 84.652954,168.906342 88.217545,173.328751 
	C88.244850,173.362625 89.465530,172.434586 90.416214,171.979980 
	C91.526489,172.488556 92.349564,172.972855 93.133377,173.947388 
	C93.067062,176.421356 93.083763,178.406876 93.003563,180.388458 
	C92.849785,184.188110 95.534760,184.869965 97.883110,183.647308 
	C104.399231,180.254745 110.786469,176.541763 116.888863,172.454117 
	C120.690498,169.907639 123.691093,166.188995 127.403015,163.478165 
	C131.068085,160.801575 132.929428,157.502197 133.174637,152.779816 
	C135.201263,150.900772 137.057983,149.307861 138.935577,148.185486 
	C138.971481,149.951645 138.830551,151.272827 139.037430,152.537094 
	C139.361313,154.516434 139.920349,156.457321 140.379776,158.414490 
	C141.919449,157.608612 143.459106,156.802750 144.998688,156.436432 
	C145.665329,159.918488 146.332047,162.960983 147.048645,166.347015 
	C146.557220,168.129211 146.264603,169.742340 145.409744,170.961105 
	C144.408997,172.387848 142.967392,173.527908 141.623550,174.683655 
	C140.699570,175.478317 139.616440,176.087967 138.604446,176.780304 
	C138.046265,175.864136 137.499359,174.940811 136.925980,174.034256 
	C136.533890,173.414337 136.104874,172.817780 135.422485,171.813644 
	C134.814713,172.753006 134.086945,173.421860 134.217133,173.744385 
	C136.529236,179.471954 132.827728,181.962234 128.670044,184.181213 
	C125.931435,185.642838 123.025002,186.820969 120.404129,188.462082 
	C118.429710,189.698380 116.789162,191.467850 115.000000,193.000000 
z"/>
<path fill="#005E78" opacity="1.000000" stroke="none" 
	d="
M193.000000,127.000000 
	C193.000000,148.898193 193.000000,170.796371 193.000000,193.000000 
	C183.647995,193.000000 174.292648,193.000000 164.544373,192.673553 
	C167.219131,188.354431 170.513489,184.504440 173.184402,180.261963 
	C173.800400,179.283539 172.605682,175.709152 171.687790,175.470612 
	C167.493484,174.380676 167.822662,171.371613 168.053116,168.417557 
	C168.321716,164.974808 168.909546,161.556183 169.400101,158.132996 
	C169.438522,157.864822 169.800430,157.642990 170.070358,157.332458 
	C171.258240,157.653030 172.404449,157.962357 173.962173,158.382736 
	C174.566559,154.842682 175.094299,151.751480 175.704819,148.175400 
	C177.064301,149.981750 177.970734,151.186127 178.877167,152.390503 
	C179.250885,152.295197 179.624619,152.199905 179.998337,152.104614 
	C179.998337,142.402802 179.998337,132.700989 179.998627,122.536057 
	C179.999298,118.048615 179.999649,114.024307 180.189056,109.699989 
	C181.908844,108.932526 183.439560,108.465065 185.009918,108.430130 
	C185.066605,110.177048 184.864166,111.543671 185.161102,112.791466 
	C185.472046,114.098076 186.262650,115.290535 186.843597,116.532890 
	C187.874100,115.691017 188.904602,114.849144 190.211304,114.001221 
	C190.671585,113.990349 190.855698,113.985527 191.089417,113.919098 
	C191.139038,113.857506 191.295654,113.835159 191.203583,114.305183 
	C191.078461,116.734077 190.774231,118.737099 191.084030,120.640160 
	C191.436707,122.806656 192.337463,124.883934 193.000000,127.000000 
z"/>
<path fill="#005871" opacity="1.000000" stroke="none" 
	d="
M180.000000,110.000000 
	C179.999649,114.024307 179.999298,118.048615 179.655121,122.633255 
	C178.393112,125.256241 177.670120,128.979462 176.525314,129.114044 
	C168.661377,130.038376 168.701065,137.469528 165.206146,141.902893 
	C164.421387,142.898346 163.201447,143.971436 163.149979,145.054810 
	C162.852890,151.306732 163.013641,157.581604 162.672104,163.829712 
	C162.496078,167.049561 162.308960,170.592316 160.893372,173.357758 
	C157.240341,180.494125 150.687790,184.871613 144.156754,189.177246 
	C142.837723,190.046829 142.038742,191.705261 141.000000,193.000000 
	C132.645767,193.000000 124.291534,193.000000 115.468651,193.000000 
	C116.789162,191.467850 118.429710,189.698380 120.404129,188.462082 
	C123.025002,186.820969 125.931435,185.642838 128.670044,184.181213 
	C132.827728,181.962234 136.529236,179.471954 134.217133,173.744385 
	C134.086945,173.421860 134.814713,172.753006 135.422485,171.813644 
	C136.104874,172.817780 136.533890,173.414337 136.925980,174.034256 
	C137.499359,174.940811 138.046265,175.864136 138.604446,176.780304 
	C139.616440,176.087967 140.699570,175.478317 141.623550,174.683655 
	C142.967392,173.527908 144.408997,172.387848 145.409744,170.961105 
	C146.264603,169.742340 146.557220,168.129211 147.416779,166.219360 
	C148.159698,162.497986 148.584335,159.247772 149.334106,156.082153 
	C150.662857,157.325500 151.666504,158.484283 152.670151,159.643051 
	C153.113434,159.577774 153.556717,159.512512 154.000000,159.447250 
	C154.000000,156.964981 154.000000,154.482727 154.200638,151.870209 
	C154.652695,151.535492 154.852066,151.288925 155.324005,150.910507 
	C157.608032,149.180862 157.395370,147.906815 155.003891,146.538239 
	C155.356720,142.023422 155.710678,137.969894 156.430542,133.997040 
	C159.780258,135.404007 161.118698,134.534363 161.018631,131.176544 
	C160.864990,126.021683 160.901672,120.861153 160.888702,115.337021 
	C161.407120,113.583328 161.894424,112.195648 162.545731,111.204773 
	C162.931137,117.129883 163.152542,122.658188 163.373962,128.186493 
	C163.989029,128.322296 164.604111,128.458115 165.219177,128.593918 
	C165.823502,127.209366 166.894241,125.842873 166.948639,124.437035 
	C167.147690,119.293121 167.008270,114.136093 167.367737,109.081726 
	C168.176544,111.447845 168.613983,113.716248 169.031143,116.388229 
	C169.224289,118.618835 169.437729,120.445854 169.651154,122.272865 
	C170.347305,122.351746 171.043442,122.430626 171.739594,122.509506 
	C172.147308,120.335846 172.555038,118.162178 172.978699,115.585732 
	C173.318909,113.342400 173.643143,111.501854 174.250885,109.864609 
	C175.734772,109.715446 176.935165,109.362968 178.368622,109.134628 
	C179.067780,109.505844 179.533890,109.752922 180.000000,110.000000 
z"/>
<path fill="#015069" opacity="1.000000" stroke="none" 
	d="
M90.129005,171.955688 
	C89.465530,172.434586 88.244850,173.362625 88.217545,173.328751 
	C84.652954,168.906342 83.402771,172.477676 81.992378,175.992386 
	C81.068802,173.217789 80.413681,171.249680 79.311272,167.937820 
	C77.777748,170.572617 77.011230,171.889603 76.240013,173.204071 
	C75.141800,171.643799 74.048286,170.086029 72.954773,168.528275 
	C71.964691,170.700226 70.974609,172.872162 69.708168,175.650360 
	C69.155228,172.662201 68.684563,170.118698 68.156799,167.266632 
	C63.789478,170.670151 63.289700,186.810608 66.916702,192.660156 
	C53.979103,193.000000 40.958210,193.000000 27.468655,193.000000 
	C28.313894,191.521591 29.379221,189.653076 30.983719,188.630737 
	C38.914864,183.577148 47.080723,178.885818 54.906570,173.680038 
	C56.002377,172.951111 56.387150,168.670074 55.900311,168.425720 
	C50.477493,165.704056 51.916351,161.462631 52.901119,157.215759 
	C53.186760,155.983902 53.336834,154.720627 53.758205,152.240936 
	C56.622555,156.585175 63.863682,152.940475 64.426758,160.542755 
	C64.939674,159.347183 65.452591,158.151627 66.302521,156.672058 
	C74.469368,161.577255 82.299187,166.766479 90.129005,171.955688 
z"/>
<path fill="#005A74" opacity="1.000000" stroke="none" 
	d="
M141.468628,193.000000 
	C142.038742,191.705261 142.837723,190.046829 144.156754,189.177246 
	C150.687790,184.871613 157.240341,180.494125 160.893372,173.357758 
	C162.308960,170.592316 162.496078,167.049561 162.672104,163.829712 
	C163.013641,157.581604 162.852890,151.306732 163.149979,145.054810 
	C163.201447,143.971436 164.421387,142.898346 165.206146,141.902893 
	C168.701065,137.469528 168.661377,130.038376 176.525314,129.114044 
	C177.670120,128.979462 178.393112,125.256241 179.654816,123.096390 
	C179.998337,132.700989 179.998337,142.402802 179.998337,152.104614 
	C179.624619,152.199905 179.250885,152.295197 178.877167,152.390503 
	C177.970734,151.186127 177.064301,149.981750 175.704819,148.175400 
	C175.094299,151.751480 174.566559,154.842682 173.962173,158.382736 
	C172.404449,157.962357 171.258240,157.653030 170.070358,157.332458 
	C169.800430,157.642990 169.438522,157.864822 169.400101,158.132996 
	C168.909546,161.556183 168.321716,164.974808 168.053116,168.417557 
	C167.822662,171.371613 167.493484,174.380676 171.687790,175.470612 
	C172.605682,175.709152 173.800400,179.283539 173.184402,180.261963 
	C170.513489,184.504440 167.219131,188.354431 164.075714,192.673553 
	C156.645752,193.000000 149.291504,193.000000 141.468628,193.000000 
z"/>
<path fill="#022C45" opacity="1.000000" stroke="none" 
	d="
M46.000000,1.000000 
	C56.687561,1.000000 67.375122,1.000000 78.527588,1.412488 
	C79.068863,8.763873 79.145226,15.702771 78.895294,22.798981 
	C67.711403,25.963413 56.853806,28.970533 45.996941,31.531433 
	C45.997673,28.330046 45.997673,25.574879 45.997673,22.819714 
	C46.427559,22.835012 46.857445,22.850311 47.287331,22.865610 
	C47.924561,24.444405 48.561790,26.023199 49.284225,27.813099 
	C52.931511,23.997385 53.069878,9.718577 48.622826,3.534178 
	C48.241383,9.012834 47.859936,14.491489 47.478493,19.970144 
	C46.985661,19.927200 46.492832,19.884254 46.000000,19.841311 
	C46.000000,13.560874 46.000000,7.280437 46.000000,1.000000 
z"/>
<path fill="#012E4A" opacity="1.000000" stroke="none" 
	d="
M45.533138,1.000000 
	C46.000000,7.280437 46.000000,13.560874 46.000000,19.841311 
	C46.492832,19.884254 46.985661,19.927200 47.478493,19.970144 
	C47.859936,14.491489 48.241383,9.012834 48.622826,3.534178 
	C53.069878,9.718577 52.931511,23.997385 49.284225,27.813099 
	C48.561790,26.023199 47.924561,24.444405 47.287331,22.865610 
	C46.857445,22.850311 46.427559,22.835012 45.997673,22.819714 
	C45.997673,25.574879 45.997673,28.330046 45.683342,31.739990 
	C40.611050,33.701141 35.853081,35.007511 31.059414,35.894104 
	C30.336264,31.614849 29.648813,27.755365 28.939663,23.774065 
	C24.614079,23.087318 23.882446,21.351027 26.439074,16.274525 
	C27.333210,17.716125 28.117313,18.980320 28.901415,20.244516 
	C29.267611,20.199780 29.633804,20.155045 30.000000,20.110310 
	C30.000000,13.740207 30.000000,7.370103 30.000000,1.000000 
	C35.022091,1.000000 40.044186,1.000000 45.533138,1.000000 
z"/>
<path fill="#00324C" opacity="1.000000" stroke="none" 
	d="
M156.000000,1.000000 
	C164.020905,1.000000 172.041809,1.000000 180.532013,1.468640 
	C181.001312,9.316916 181.001312,16.696554 181.001312,24.076191 
	C180.478180,24.056940 179.955063,24.037689 179.431931,24.018438 
	C179.062897,21.084291 178.693848,18.150145 178.212830,14.325691 
	C173.411240,17.720644 175.644333,21.730579 174.661682,24.996099 
	C173.884888,25.000198 173.440918,25.002144 172.665741,25.009823 
	C171.555527,25.343313 170.776535,25.671068 169.645569,25.886232 
	C168.208542,23.514347 167.123459,21.255054 166.038391,18.995762 
	C165.330200,19.193808 164.621994,19.391851 163.913803,19.589897 
	C163.913803,25.172918 163.913803,30.755941 163.657410,36.307915 
	C163.261017,36.176620 163.121033,36.076378 162.816422,35.595055 
	C162.268478,28.591537 161.885178,21.969101 161.501877,15.346664 
	C160.820740,15.245800 160.139603,15.144937 159.458481,15.044073 
	C158.972443,16.788183 158.276688,18.504498 158.041138,20.281807 
	C157.425232,24.928856 157.010544,29.602573 156.356171,34.284130 
	C156.196701,34.302601 155.995224,34.052612 155.996094,33.580658 
	C155.997955,22.405802 155.998978,11.702901 156.000000,1.000000 
z"/>
<path fill="#022F4B" opacity="1.000000" stroke="none" 
	d="
M79.221581,22.641668 
	C79.145226,15.702771 79.068863,8.763873 78.996246,1.412488 
	C88.020897,1.000000 97.041786,1.000000 106.459839,1.411487 
	C106.571136,7.855899 106.285263,13.888824 105.607765,19.947002 
	C100.085533,18.002213 95.044365,17.774996 89.784355,19.871231 
	C86.428398,21.208654 82.753487,21.745743 79.221581,22.641668 
z"/>
<path fill="#004260" opacity="1.000000" stroke="none" 
	d="
M193.000000,39.000000 
	C193.000000,45.021152 193.000000,51.042305 192.640198,57.411636 
	C191.847626,56.087391 191.544769,54.366550 190.944946,52.756348 
	C190.362061,51.191658 189.474625,49.740417 188.720901,48.239361 
	C188.229065,48.423191 187.737228,48.607018 187.245392,48.790848 
	C187.069000,52.266243 186.892624,55.741634 186.658951,60.345516 
	C185.102234,57.897404 184.283005,56.609070 183.463776,55.320736 
	C182.953064,55.309189 182.442368,55.297642 181.931656,55.286095 
	C181.621307,57.323307 180.943573,59.383957 181.071762,61.393188 
	C181.411102,66.712234 178.253250,68.565163 174.454559,69.591888 
	C172.998566,67.418243 171.821960,65.661720 170.552628,63.463699 
	C170.632889,60.014450 170.805878,57.006702 171.302002,54.071190 
	C172.569473,54.516563 173.513809,54.889709 174.998840,55.476505 
	C174.998840,51.892441 174.998840,48.946144 174.999222,45.562469 
	C175.000763,43.084335 175.001907,41.043587 175.361313,38.949406 
	C178.076706,38.008854 179.052200,38.818836 179.025284,41.334221 
	C179.001068,43.598030 179.269028,45.864967 179.408112,48.130524 
	C179.940872,48.101192 180.473633,48.071865 181.006393,48.042534 
	C181.006393,42.040657 181.102722,36.036575 180.965439,30.037840 
	C180.897552,27.071150 181.995560,25.693508 184.998199,26.466049 
	C184.998825,30.977057 184.998825,35.024143 184.998825,39.071232 
	C185.666901,39.061745 186.334976,39.052258 187.003052,39.042770 
	C187.003052,35.362255 187.003052,31.681738 187.344177,28.049976 
	C188.789993,28.399179 189.894699,28.699629 191.000031,29.447781 
	C191.667130,32.930325 192.333557,35.965164 193.000000,39.000000 
z"/>
<path fill="#022E48" opacity="1.000000" stroke="none" 
	d="
M111.000000,1.000000 
	C118.687584,1.000000 126.375160,1.000000 134.530212,1.468655 
	C134.998276,10.636319 134.998871,19.335329 134.728561,28.043186 
	C134.293930,27.975620 134.130188,27.899208 133.782593,27.662291 
	C133.308014,27.322123 132.993301,27.255508 132.698425,27.319027 
	C132.742233,27.336113 132.677490,27.404327 132.761871,26.914246 
	C132.344528,21.720047 134.805649,16.349209 131.112930,12.363166 
	C130.386459,12.456253 129.659973,12.549341 128.933502,12.642429 
	C128.933502,17.185173 128.933502,21.727917 128.537140,26.275066 
	C124.756363,25.257765 121.371971,24.236057 117.990921,22.735067 
	C117.993507,18.966555 118.189537,15.659631 117.896172,12.396710 
	C117.776978,11.071044 116.593193,9.841096 115.893814,8.567595 
	C115.263855,9.910642 114.259872,11.207442 114.086823,12.606982 
	C113.786354,15.037024 113.999603,17.530584 113.623871,19.866259 
	C112.834206,18.069857 112.209251,16.425348 112.042244,14.735579 
	C111.590752,10.167338 111.334000,5.579852 111.000000,1.000000 
z"/>
<path fill="#002D48" opacity="1.000000" stroke="none" 
	d="
M29.571537,1.000000 
	C30.000000,7.370103 30.000000,13.740207 30.000000,20.110310 
	C29.633804,20.155045 29.267611,20.199780 28.901415,20.244516 
	C28.117313,18.980320 27.333210,17.716125 26.439074,16.274525 
	C23.882446,21.351027 24.614079,23.087318 28.939663,23.774065 
	C29.648813,27.755365 30.336264,31.614849 30.805859,36.116447 
	C28.415602,38.173176 26.243200,39.587791 23.734325,40.953995 
	C21.973867,40.267628 20.549881,39.629677 19.094294,38.548832 
	C19.031181,36.121445 19.160681,34.117702 18.926390,32.157444 
	C18.649035,29.836918 17.697514,28.220715 14.734241,30.019096 
	C14.247569,30.017405 14.052897,30.018730 13.868288,29.603703 
	C13.882045,27.800829 13.885737,26.414305 14.248158,24.937569 
	C15.414665,23.518154 16.754999,22.258530 16.939316,20.847864 
	C17.800764,14.254717 18.343409,7.619915 19.000000,1.000000 
	C19.750000,1.000000 20.500000,1.000000 21.637550,1.321603 
	C22.292051,2.194327 22.559002,2.745447 22.825954,3.296568 
	C23.217302,2.531045 23.608652,1.765523 24.000000,1.000000 
	C25.714357,1.000000 27.428717,1.000000 29.571537,1.000000 
M27.631765,9.034237 
	C26.840057,9.415867 26.048351,9.797497 25.256643,10.179127 
	C25.463226,10.587815 25.669809,10.996504 25.876392,11.405191 
	C26.508190,10.813439 27.139988,10.221687 27.631765,9.034237 
M26.224367,27.259611 
	C25.920248,27.754850 25.616129,28.250092 25.312012,28.745333 
	C25.679615,28.926271 26.047216,29.107210 26.414818,29.288149 
	C26.530148,28.625473 26.645475,27.962795 26.224367,27.259611 
z"/>
<path fill="#024A65" opacity="1.000000" stroke="none" 
	d="
M170.645370,63.905197 
	C171.821960,65.661720 172.998566,67.418243 174.454559,69.591888 
	C178.253250,68.565163 181.411102,66.712234 181.071762,61.393188 
	C180.943573,59.383957 181.621307,57.323307 181.931656,55.286095 
	C182.442368,55.297642 182.953064,55.309189 183.463776,55.320736 
	C184.283005,56.609070 185.102234,57.897404 186.658951,60.345516 
	C186.892624,55.741634 187.069000,52.266243 187.245392,48.790848 
	C187.737228,48.607018 188.229065,48.423191 188.720901,48.239361 
	C189.474625,49.740417 190.362061,51.191658 190.944946,52.756348 
	C191.544769,54.366550 191.847626,56.087391 192.640198,57.879910 
	C193.000000,59.714359 193.000000,61.428715 192.611786,63.660755 
	C191.924957,67.503838 191.626328,70.829239 191.268997,74.371979 
	C191.210312,74.589317 191.053375,75.011314 190.694214,75.012421 
	C189.856506,75.026184 189.377945,75.038857 188.520126,74.994530 
	C187.079117,76.290146 186.017380,77.642761 184.595947,79.009377 
	C181.823700,81.002090 179.411133,82.980804 176.681671,84.985382 
	C175.941422,85.033852 175.518082,85.056458 174.752625,85.051239 
	C173.956161,84.998314 173.501801,84.973228 173.043243,84.523163 
	C173.021652,82.398270 173.004288,80.698357 172.992645,78.573631 
	C172.466370,75.885574 174.583435,72.356842 170.005493,71.581642 
	C170.181808,68.744003 170.413589,66.324600 170.645370,63.905197 
z"/>
<path fill="#023555" opacity="1.000000" stroke="none" 
	d="
M134.999466,28.034338 
	C134.998871,19.335329 134.998276,10.636319 134.998840,1.468655 
	C138.030594,1.000000 141.061188,1.000000 144.546280,1.468657 
	C144.998825,11.597947 144.996872,21.258581 144.618835,30.932392 
	C141.161667,29.975159 138.080566,29.004749 134.999466,28.034338 
z"/>
<path fill="#003B5C" opacity="1.000000" stroke="none" 
	d="
M184.997559,26.002127 
	C181.995560,25.693508 180.897552,27.071150 180.965439,30.037840 
	C181.102722,36.036575 181.006393,42.040657 181.006393,48.042534 
	C180.473633,48.071865 179.940872,48.101192 179.408112,48.130524 
	C179.269028,45.864967 179.001068,43.598030 179.025284,41.334221 
	C179.052200,38.818836 178.076706,38.008854 175.360031,38.484421 
	C174.998489,33.713226 174.996490,29.353586 174.994507,24.993944 
	C175.644333,21.730579 173.411240,17.720644 178.212830,14.325691 
	C178.693848,18.150145 179.062897,21.084291 179.431931,24.018438 
	C179.955063,24.037689 180.478180,24.056940 181.001312,24.076191 
	C181.001312,16.696554 181.001312,9.316916 181.000656,1.468640 
	C182.066666,1.000000 183.133347,1.000000 184.599487,1.468649 
	C184.998505,9.958907 184.998032,17.980516 184.997559,26.002127 
z"/>
<path fill="#004F6D" opacity="1.000000" stroke="none" 
	d="
M1.000000,145.468658 
	C4.889568,144.877960 5.016722,147.501480 5.010689,150.357422 
	C4.981326,164.259125 4.999546,178.160919 5.000461,192.531342 
	C3.677989,193.000000 2.355978,193.000000 1.000000,193.000000 
	C1.000000,177.312454 1.000000,161.624878 1.000000,145.468658 
z"/>
<path fill="#002C46" opacity="1.000000" stroke="none" 
	d="
M18.539364,1.000000 
	C18.343409,7.619915 17.800764,14.254717 16.939316,20.847864 
	C16.754999,22.258530 15.414665,23.518154 14.021086,24.600288 
	C13.278804,21.421412 13.206469,18.481913 12.939436,15.560209 
	C12.722609,13.187819 12.141850,11.038754 8.683502,13.000338 
	C7.933584,12.985830 7.505536,12.974361 7.066714,12.504731 
	C7.037293,8.364380 7.018647,4.682190 7.000000,1.000000 
	C10.692909,1.000000 14.385818,1.000000 18.539364,1.000000 
z"/>
<path fill="#013657" opacity="1.000000" stroke="none" 
	d="
M146.000000,1.000000 
	C147.714371,1.000000 149.428757,1.000000 151.571991,1.468635 
	C152.000763,9.623713 152.000687,17.310156 151.672531,25.087227 
	C150.866898,27.555262 150.389359,29.932667 149.558685,32.311523 
	C148.122604,31.938696 147.039627,31.564413 145.968353,30.709682 
	C145.986694,20.486156 145.993347,10.743078 146.000000,1.000000 
z"/>
<path fill="#004560" opacity="1.000000" stroke="none" 
	d="
M13.987480,135.994095 
	C12.358841,134.753555 10.730201,133.513031 8.876626,132.101166 
	C7.831908,133.271515 6.927470,134.284698 6.402122,134.873230 
	C4.860651,131.996658 3.289631,129.064941 1.359306,126.066605 
	C1.000000,121.310745 1.000000,116.621490 1.380106,111.403557 
	C2.153039,112.211571 2.599436,113.535255 2.927718,114.887611 
	C3.646369,117.848099 4.900249,118.627213 7.349256,116.011795 
	C7.938117,116.015289 8.274676,116.018921 8.692613,116.443283 
	C8.858271,118.574371 8.942553,120.284744 8.973579,122.421539 
	C8.901489,129.187973 8.901489,129.187973 13.381949,128.021042 
	C14.057775,128.023560 14.443934,128.036880 14.890385,128.284821 
	C14.950676,128.519424 15.069650,128.988998 15.022867,129.425232 
	C14.982714,131.907654 14.989342,133.953873 14.743870,135.994614 
	C14.323674,135.990799 14.155578,135.992447 13.987480,135.994095 
z"/>
<path fill="#013758" opacity="1.000000" stroke="none" 
	d="
M152.000610,24.996597 
	C152.000687,17.310156 152.000763,9.623713 152.000427,1.468635 
	C153.066666,1.000000 154.133347,1.000000 155.600006,1.000000 
	C155.998978,11.702901 155.997955,22.405802 155.644363,33.593357 
	C154.200714,33.680187 153.109634,33.282364 152.014282,32.447906 
	C152.006851,29.673044 152.003723,27.334822 152.000610,24.996597 
z"/>
<path fill="#00ACC1" opacity="1.000000" stroke="none" 
	d="
M7.096954,116.011940 
	C4.900249,118.627213 3.646369,117.848099 2.927718,114.887611 
	C2.599436,113.535255 2.153039,112.211571 1.380106,110.937439 
	C1.000000,109.611107 1.000000,108.222221 1.418917,106.439926 
	C2.271760,100.706604 2.705686,95.366676 3.453979,89.968269 
	C4.794672,89.617538 5.820997,89.325287 6.894704,89.497452 
	C6.993708,98.645218 7.045331,107.328575 7.096954,116.011940 
z"/>
<path fill="#003C5F" opacity="1.000000" stroke="none" 
	d="
M190.999390,29.000076 
	C189.894699,28.699629 188.789993,28.399179 187.342651,27.581182 
	C187.000000,18.375755 187.000000,9.687878 187.000000,1.000000 
	C188.066666,1.000000 189.133347,1.000000 190.598938,1.468655 
	C190.998367,10.958233 190.998886,19.979155 190.999390,29.000076 
z"/>
<path fill="#00314F" opacity="1.000000" stroke="none" 
	d="
M110.666672,1.000000 
	C111.334000,5.579852 111.590752,10.167338 112.042244,14.735579 
	C112.209251,16.425348 112.834206,18.069857 113.854103,20.122280 
	C114.602966,21.173889 114.748032,21.838224 114.511879,22.435020 
	C112.051094,21.703457 109.971535,21.039433 107.918076,19.884893 
	C108.296112,13.262918 108.648056,7.131459 109.000000,1.000000 
	C109.444443,1.000000 109.888893,1.000000 110.666672,1.000000 
z"/>
<path fill="#003857" opacity="1.000000" stroke="none" 
	d="
M1.000000,41.000000 
	C1.000000,28.500002 0.980879,15.999908 1.042942,3.500218 
	C1.047088,2.665248 1.666667,1.833335 2.503999,1.467615 
	C3.017554,7.293327 3.027108,12.651424 3.027240,18.477161 
	C2.999012,26.286602 2.980207,33.628407 2.634544,40.977676 
	C1.871790,40.990097 1.435895,40.995049 1.000000,41.000000 
z"/>
<path fill="#00BCCB" opacity="1.000000" stroke="none" 
	d="
M191.053375,75.011314 
	C191.053375,75.011314 191.210312,74.589317 191.546387,74.344856 
	C192.254974,74.066933 192.627487,74.033470 193.000000,74.000000 
	C193.000000,87.020897 193.000000,100.041786 192.714111,113.514206 
	C192.050690,113.922203 191.673172,113.878677 191.295654,113.835159 
	C191.295654,113.835159 191.139038,113.857506 191.134247,113.453964 
	C191.104111,100.370720 191.078751,87.691017 191.053375,75.011314 
z"/>
<path fill="#003753" opacity="1.000000" stroke="none" 
	d="
M186.666672,1.000000 
	C187.000000,9.687878 187.000000,18.375755 187.001526,27.532427 
	C187.003052,31.681738 187.003052,35.362255 187.003052,39.042770 
	C186.334976,39.052258 185.666901,39.061745 184.998825,39.071232 
	C184.998825,35.024143 184.998825,30.977057 184.998199,26.466049 
	C184.998032,17.980516 184.998505,9.958907 184.999481,1.468649 
	C185.444443,1.000000 185.888901,1.000000 186.666672,1.000000 
z"/>
<path fill="#003754" opacity="1.000000" stroke="none" 
	d="
M191.000031,29.447781 
	C190.998886,19.979155 190.998367,10.958233 190.998932,1.468655 
	C194.006882,0.392077 192.962280,2.672404 192.968353,3.944794 
	C193.022644,15.317216 193.000000,26.690002 193.000000,38.531342 
	C192.333557,35.965164 191.667130,32.930325 191.000031,29.447781 
z"/>
<path fill="#004572" opacity="1.000000" stroke="none" 
	d="
M3.036663,18.009521 
	C3.027108,12.651424 3.017554,7.293327 3.003999,1.467615 
	C4.066669,1.000000 5.133338,1.000000 6.600004,1.000000 
	C7.018647,4.682190 7.037293,8.364380 7.040816,12.886904 
	C7.002272,14.490936 6.978853,15.254634 6.643089,16.085432 
	C5.232718,16.771528 4.134690,17.390524 3.036663,18.009521 
z"/>
<path fill="#00637D" opacity="1.000000" stroke="none" 
	d="
M3.139612,90.026749 
	C2.705686,95.366676 2.271760,100.706604 1.418917,106.023270 
	C1.000000,96.979103 1.000000,87.958214 1.319878,78.466553 
	C2.066218,77.989395 2.492681,77.982994 2.952636,78.397720 
	C3.034542,80.225319 3.082956,81.631783 3.103262,83.473755 
	C3.096640,85.948425 3.118126,87.987587 3.139612,90.026749 
z"/>
<path fill="#004664" opacity="1.000000" stroke="none" 
	d="
M1.000000,41.468269 
	C1.435895,40.995049 1.871790,40.990097 2.651617,41.320953 
	C3.011676,42.113979 3.027803,42.571198 3.035893,43.488922 
	C3.026559,47.971066 3.025260,51.992699 3.016768,56.411331 
	C2.999055,57.868103 2.988537,58.927876 2.648357,59.990913 
	C1.879131,59.996117 1.439565,59.998058 1.000000,60.000000 
	C1.000000,53.978848 1.000000,47.957695 1.000000,41.468269 
z"/>
<path fill="#022E48" opacity="1.000000" stroke="none" 
	d="
M108.666672,1.000000 
	C108.648056,7.131459 108.296112,13.262918 107.585411,19.901751 
	C106.817558,20.246666 106.408478,20.084208 105.999390,19.921749 
	C106.285263,13.888824 106.571136,7.855899 106.928497,1.411487 
	C107.444443,1.000000 107.888893,1.000000 108.666672,1.000000 
z"/>
<path fill="#005572" opacity="1.000000" stroke="none" 
	d="
M1.000000,60.467941 
	C1.439565,59.998058 1.879131,59.996117 2.660177,60.431675 
	C3.024012,62.925411 3.046365,64.981651 3.053399,67.484665 
	C3.050919,70.628922 3.063760,73.326393 3.052693,76.349594 
	C2.992238,77.109077 2.955690,77.542839 2.919143,77.976593 
	C2.492681,77.982994 2.066218,77.989395 1.319878,77.997894 
	C1.000000,72.311958 1.000000,66.623917 1.000000,60.467941 
z"/>
<path fill="#002F49" opacity="1.000000" stroke="none" 
	d="
M145.750000,1.000000 
	C145.993347,10.743078 145.986694,20.486156 145.710037,30.705112 
	C145.291672,31.093731 145.143295,31.006474 144.994904,30.919214 
	C144.996872,21.258581 144.998825,11.597947 145.000397,1.468657 
	C145.000000,1.000000 145.500000,1.000000 145.750000,1.000000 
z"/>
<path fill="#0092A7" opacity="1.000000" stroke="none" 
	d="
M191.203583,114.305176 
	C191.673172,113.878677 192.050690,113.922203 192.714111,113.982864 
	C193.000000,118.024544 193.000000,122.049088 193.000000,126.536819 
	C192.337463,124.883934 191.436707,122.806656 191.084030,120.640160 
	C190.774231,118.737099 191.078461,116.734077 191.203583,114.305176 
z"/>
<path fill="#0092A7" opacity="1.000000" stroke="none" 
	d="
M193.000000,73.545891 
	C192.627487,74.033470 192.254974,74.066933 191.605072,74.127518 
	C191.626328,70.829239 191.924957,67.503838 192.611786,64.089218 
	C193.000000,67.030594 193.000000,70.061188 193.000000,73.545891 
z"/>
<path fill="#002C46" opacity="1.000000" stroke="none" 
	d="
M23.666668,1.000000 
	C23.608652,1.765523 23.217302,2.531045 22.825954,3.296568 
	C22.559002,2.745447 22.292051,2.194327 22.012550,1.321603 
	C22.444445,1.000000 22.888889,1.000000 23.666668,1.000000 
z"/>
<path fill="#F5AE26" opacity="1.000000" stroke="none" 
	d="
M144.618835,30.932392 
	C145.143295,31.006474 145.291672,31.093731 145.698364,31.185560 
	C147.039627,31.564413 148.122604,31.938696 149.770081,32.505085 
	C150.895935,32.759640 151.457245,32.822090 152.018570,32.884541 
	C153.109634,33.282364 154.200714,33.680187 155.643494,34.065311 
	C155.995224,34.052612 156.196701,34.302601 156.650543,34.520317 
	C159.063278,35.150734 161.022171,35.563435 162.981049,35.976135 
	C163.121033,36.076378 163.261017,36.176620 163.905823,36.527855 
	C166.271957,37.524616 168.133255,38.270390 170.091156,39.414703 
	C170.451447,44.541817 170.715164,49.270386 170.978882,53.998959 
	C170.805878,57.006702 170.632889,60.014450 170.552628,63.463696 
	C170.413589,66.324600 170.181808,68.744003 169.884705,71.956268 
	C169.601837,74.841179 169.384293,76.933235 169.070496,79.351151 
	C168.951187,80.351143 168.928101,81.025276 168.692062,82.052155 
	C168.301941,84.598518 168.124771,86.792130 167.777252,89.319229 
	C167.316177,91.639740 167.025467,93.626778 166.518707,95.929863 
	C164.995697,101.099930 163.688705,105.953949 162.381729,110.807968 
	C161.894424,112.195648 161.407120,113.583328 160.622253,115.567291 
	C158.983719,119.104874 157.642746,122.046165 156.095032,125.229050 
	C155.559998,126.237419 155.231720,127.004204 154.623688,127.950226 
	C153.196777,129.988312 152.049606,131.847168 150.622757,133.892761 
	C149.203583,135.709549 148.064072,137.339569 146.680557,139.086975 
	C145.895477,139.914200 145.354401,140.624008 144.515396,141.511810 
	C143.815170,142.248398 143.412872,142.807007 142.737915,143.490875 
	C141.281754,144.982422 140.098236,146.348694 138.914703,147.714966 
	C137.057983,149.307861 135.201263,150.900772 132.857727,152.884277 
	C122.742126,159.718948 113.151222,166.220734 103.463020,172.574173 
	C100.293694,174.652588 96.801918,175.502472 93.172630,173.457138 
	C92.349564,172.972855 91.526489,172.488556 90.416214,171.979980 
	C82.299187,166.766479 74.469368,161.577255 66.317657,156.327667 
	C58.877285,148.830093 51.758793,141.392883 44.293301,133.434509 
	C42.365532,130.601486 40.784767,128.289627 39.204002,125.977768 
	C39.030308,125.521767 38.856613,125.065773 38.356369,124.068062 
	C36.421188,120.675461 34.812553,117.824577 33.203918,114.973686 
	C33.006420,113.598503 32.808922,112.223328 32.370598,110.328362 
	C32.097473,109.540024 31.994295,109.302139 31.868164,108.828430 
	C31.732458,108.269073 31.548819,107.976204 31.375099,107.672668 
	C31.385017,107.661995 31.403473,107.639450 31.354214,107.255341 
	C29.929241,103.125259 28.553532,99.379303 27.177818,95.633339 
	C27.082792,93.010887 26.987766,90.388435 26.795486,87.012115 
	C26.476479,85.173462 26.254723,84.088661 26.083462,82.584404 
	C25.972015,80.775055 25.810070,79.385162 25.704193,77.657234 
	C25.670023,76.875870 25.579784,76.432556 25.539074,75.599716 
	C25.002468,70.804596 24.416330,66.399002 23.895679,61.533188 
	C23.941534,57.046604 23.921904,53.020245 23.982128,48.556107 
	C24.064920,45.746357 24.067858,43.374382 24.070797,41.002403 
	C26.243200,39.587791 28.415602,38.173176 30.841558,36.536221 
	C35.853081,35.007511 40.611050,33.701141 45.682610,32.186211 
	C56.853806,28.970533 67.711403,25.963413 78.895294,22.798981 
	C82.753487,21.745743 86.428398,21.208654 89.784355,19.871231 
	C95.044365,17.774996 100.085533,18.002213 105.607765,19.947002 
	C106.408478,20.084208 106.817558,20.246666 107.559311,20.392267 
	C109.971535,21.039433 112.051094,21.703457 114.788773,22.601273 
	C116.293777,22.961491 117.140671,23.087921 117.987572,23.214352 
	C121.371971,24.236057 124.756363,25.257765 128.797165,26.481712 
	C130.528214,26.924078 131.602844,27.164202 132.677490,27.404327 
	C132.677490,27.404327 132.742233,27.336113 132.855896,27.522839 
	C133.301849,27.747307 133.634140,27.785049 133.966431,27.822794 
	C134.130188,27.899208 134.293930,27.975620 134.728561,28.043186 
	C138.080566,29.004749 141.161667,29.975159 144.618835,30.932392 
M37.531029,94.828835 
	C40.368893,102.621674 42.588535,110.711716 46.164299,118.149818 
	C55.660080,137.902390 72.560638,150.261185 90.595726,161.483994 
	C95.680367,164.648026 99.564957,164.708939 104.668030,161.546783 
	C121.402184,151.177338 137.100113,139.835724 146.895309,122.117516 
	C159.692078,98.969864 161.513092,73.681915 161.077606,48.002110 
	C161.059845,46.954643 159.686935,45.368809 158.612396,44.997540 
	C153.895187,43.367664 149.057999,42.083691 144.259628,40.690426 
	C129.720642,36.468849 115.205765,32.159290 100.611168,28.139341 
	C98.388992,27.527262 95.666878,27.819714 93.390541,28.458410 
	C74.807953,33.672302 56.296085,39.138535 37.708515,44.334126 
	C34.831367,45.138340 33.317150,46.293156 33.573257,49.359474 
	C34.816933,64.249619 36.037838,79.141655 37.531029,94.828835 
z"/>
<path fill="#009EB7" opacity="1.000000" stroke="none" 
	d="
M31.820236,109.094917 
	C31.994295,109.302139 32.097473,109.540024 32.110023,109.998032 
	C31.964144,116.454742 31.838017,122.722008 31.278439,129.471893 
	C29.604736,129.958313 28.364487,129.962128 27.124237,129.965942 
	C27.094339,122.625305 27.064442,115.284645 27.428223,107.527092 
	C29.015757,107.286613 30.209616,107.463036 31.403473,107.639450 
	C31.403473,107.639450 31.385017,107.661995 31.342457,107.933807 
	C31.473345,108.502052 31.646790,108.798485 31.820236,109.094917 
z"/>
<path fill="#004E6C" opacity="1.000000" stroke="none" 
	d="
M7.000826,170.628113 
	C7.375189,162.621689 6.167270,154.942993 7.757722,147.487701 
	C8.322175,147.407883 8.886628,147.328079 9.451081,147.248260 
	C9.953635,148.283035 10.871498,149.309799 10.891596,150.353867 
	C11.025801,157.325897 11.068322,164.304398 10.873017,171.273315 
	C10.841226,172.407715 9.482237,173.504898 8.736691,174.619293 
	C8.158532,173.440292 7.580372,172.261292 7.000826,170.628113 
z"/>
<path fill="#008AA8" opacity="1.000000" stroke="none" 
	d="
M33.159042,115.439308 
	C34.812553,117.824577 36.421188,120.675461 38.084648,123.820023 
	C38.011463,128.741165 37.883453,133.368637 37.330288,138.478699 
	C35.651497,138.960770 34.397861,138.960251 33.144222,138.959747 
	C33.134201,131.274811 33.124184,123.589867 33.159042,115.439308 
z"/>
<path fill="#00AABF" opacity="1.000000" stroke="none" 
	d="
M25.070206,95.989502 
	C25.114939,102.688728 25.159672,109.387955 24.765247,116.548599 
	C23.274334,116.997986 22.222572,116.985977 21.122877,116.509544 
	C21.100224,109.370125 21.125504,102.695114 21.541973,96.015244 
	C22.978842,96.003418 24.024525,95.996460 25.070206,95.989502 
z"/>
<path fill="#005E81" opacity="1.000000" stroke="none" 
	d="
M31.790257,155.868546 
	C31.428797,161.117035 31.067335,166.365524 30.705873,171.613998 
	C29.981091,171.604080 29.256308,171.594147 28.531525,171.584213 
	C25.474180,166.738892 27.638676,161.112595 27.367722,155.500824 
	C29.084677,155.353958 30.437466,155.611252 31.790257,155.868546 
z"/>
<path fill="#007696" opacity="1.000000" stroke="none" 
	d="
M31.827053,155.416565 
	C30.437466,155.611252 29.084677,155.353958 27.385584,155.032288 
	C27.027510,150.611191 27.015741,146.254440 27.377146,141.497040 
	C29.056067,141.358398 30.361814,141.620407 31.667562,141.882416 
	C31.732994,146.243149 31.798424,150.603867 31.827053,155.416565 
z"/>
<path fill="#005973" opacity="1.000000" stroke="none" 
	d="
M13.996352,136.364426 
	C14.155578,135.992447 14.323674,135.990799 15.001905,136.154755 
	C17.778845,138.269516 18.629477,136.785049 18.909798,134.753342 
	C19.125736,133.188248 18.909401,131.563492 18.918158,129.552917 
	C19.014074,127.761246 19.077112,126.381943 19.435202,125.001923 
	C20.123800,125.001312 20.517345,125.001419 20.951969,125.369751 
	C21.046974,126.476921 21.100903,127.215866 21.103878,128.389343 
	C21.697237,131.896561 22.341549,134.969223 22.992569,138.369263 
	C23.000618,139.134109 23.001959,139.571579 22.736115,140.140656 
	C21.943497,140.861633 21.418068,141.451019 20.892641,142.040405 
	C18.877924,139.906967 13.766485,141.793472 13.996352,136.364426 
z"/>
<path fill="#008CA8" opacity="1.000000" stroke="none" 
	d="
M31.733475,141.435211 
	C30.361814,141.620407 29.056067,141.358398 27.414669,141.031677 
	C27.056423,137.605438 27.033827,134.243881 27.067734,130.424133 
	C28.364487,129.962128 29.604736,129.958313 31.206987,129.928040 
	C31.645790,133.597061 31.722589,137.292526 31.733475,141.435211 
z"/>
<path fill="#06708F" opacity="1.000000" stroke="none" 
	d="
M39.155334,126.436913 
	C40.784767,128.289627 42.365532,130.601486 44.011566,133.219910 
	C43.145969,135.915070 42.215099,138.303680 41.284233,140.692291 
	C40.530174,138.246994 39.523022,135.844467 39.100277,133.343185 
	C38.747211,131.254181 39.078465,129.049500 39.155334,126.436913 
z"/>
<path fill="#007B9C" opacity="1.000000" stroke="none" 
	d="
M33.095657,139.410126 
	C34.397861,138.960251 35.651497,138.960770 37.271942,138.937729 
	C37.698162,141.617477 37.757580,144.320770 37.398026,147.493134 
	C35.683372,147.962540 34.387688,147.962875 33.092003,147.963211 
	C33.077034,145.262314 33.062061,142.561401 33.095657,139.410126 
z"/>
<path fill="#009EB6" opacity="1.000000" stroke="none" 
	d="
M21.154831,127.954819 
	C21.100903,127.215866 21.046974,126.476921 20.990871,124.925644 
	C21.049402,121.733528 21.110107,119.353745 21.170813,116.973961 
	C22.222572,116.985977 23.274334,116.997986 24.723227,117.017227 
	C25.133116,120.387627 25.145872,123.750809 24.730911,127.563377 
	C23.253738,127.993454 22.204285,127.974136 21.154831,127.954819 
z"/>
<path fill="#008DAA" opacity="1.000000" stroke="none" 
	d="
M21.103878,128.389343 
	C22.204285,127.974136 23.253738,127.993454 24.701321,128.022491 
	C25.109631,130.728195 25.119812,133.424194 24.839355,136.663788 
	C24.027765,137.485550 23.506811,137.763718 22.985859,138.041901 
	C22.341549,134.969223 21.697237,131.896561 21.103878,128.389343 
z"/>
<path fill="#13899E" opacity="1.000000" stroke="none" 
	d="
M31.354214,107.255341 
	C30.209616,107.463036 29.015757,107.286613 27.461571,107.060150 
	C27.092600,103.445953 27.083958,99.881798 27.126568,95.975494 
	C28.553532,99.379303 29.929241,103.125259 31.354214,107.255341 
z"/>
<path fill="#046784" opacity="1.000000" stroke="none" 
	d="
M25.028381,148.019012 
	C25.010963,149.932785 25.233820,151.892517 24.879824,153.741852 
	C24.688513,154.741287 23.511709,155.552078 22.779499,156.447983 
	C22.197687,155.394836 21.339085,154.399551 21.103872,153.273972 
	C20.807474,151.855576 21.020185,150.330795 21.425983,148.422943 
	C22.901939,148.002319 23.965160,148.010666 25.028381,148.019012 
z"/>
<path fill="#007093" opacity="1.000000" stroke="none" 
	d="
M25.035921,147.579361 
	C23.965160,148.010666 22.901939,148.002319 21.442078,147.988342 
	C21.011599,146.283936 20.977762,144.585144 20.918283,142.463379 
	C21.418068,141.451019 21.943497,140.861633 22.939133,140.362030 
	C23.975544,140.633377 24.541748,140.814941 25.107952,140.996506 
	C25.086456,143.044235 25.064959,145.091980 25.035921,147.579361 
z"/>
<path fill="#046784" opacity="1.000000" stroke="none" 
	d="
M26.032965,83.003868 
	C26.254723,84.088661 26.476479,85.173462 26.644228,86.579361 
	C26.262802,88.426491 25.935381,89.952515 25.129837,91.599380 
	C24.096525,90.838440 23.541336,89.956635 22.990917,88.638885 
	C23.015125,86.469223 23.034563,84.735519 23.426132,83.001633 
	C24.543167,83.002251 25.288065,83.003059 26.032965,83.003868 
z"/>
<path fill="#006E8D" opacity="1.000000" stroke="none" 
	d="
M33.059551,148.360931 
	C34.387688,147.962875 35.683372,147.962540 37.359329,147.937836 
	C37.786598,148.237839 37.982197,148.643265 37.856598,148.873489 
	C37.002506,150.439133 36.080750,151.967850 35.180832,153.508499 
	C34.462921,151.925217 33.745010,150.341949 33.059551,148.360931 
z"/>
<path fill="#009FB8" opacity="1.000000" stroke="none" 
	d="
M22.986145,89.074837 
	C23.541336,89.956635 24.096525,90.838440 24.934206,91.868004 
	C25.197020,93.076584 25.177345,94.137398 25.113937,95.593857 
	C24.024525,95.996460 22.978842,96.003418 21.489838,95.613678 
	C21.693058,93.169594 22.339600,91.122215 22.986145,89.074837 
z"/>
<path fill="#046784" opacity="1.000000" stroke="none" 
	d="
M25.315912,140.756073 
	C24.541748,140.814941 23.975544,140.633377 23.206322,140.230438 
	C23.001959,139.571579 23.000618,139.134109 22.992565,138.369263 
	C23.506811,137.763718 24.027765,137.485550 24.830599,137.114380 
	C25.249611,138.186127 25.386742,139.350876 25.315912,140.756073 
z"/>
<path fill="#065268" opacity="1.000000" stroke="none" 
	d="
M93.133377,173.947388 
	C96.801918,175.502472 100.293694,174.652588 103.463020,172.574173 
	C113.151222,166.220734 122.742126,159.718948 132.687805,153.170410 
	C132.929428,157.502197 131.068085,160.801575 127.403015,163.478165 
	C123.691093,166.188995 120.690498,169.907639 116.888863,172.454117 
	C110.786469,176.541763 104.399231,180.254745 97.883110,183.647308 
	C95.534760,184.869965 92.849785,184.188110 93.003563,180.388458 
	C93.083763,178.406876 93.067062,176.421356 93.133377,173.947388 
z"/>
<path fill="#015B78" opacity="1.000000" stroke="none" 
	d="
M144.813324,141.333817 
	C145.354401,140.624008 145.895477,139.914200 146.992188,139.157074 
	C148.031891,139.739426 148.515945,140.369095 148.999603,141.459564 
	C149.002594,145.614609 149.005997,149.308884 149.008270,153.377472 
	C149.007751,154.500381 149.008362,155.248962 149.008972,155.997559 
	C148.584335,159.247772 148.159698,162.497986 147.366913,165.875854 
	C146.332047,162.960983 145.665329,159.918488 144.998688,155.999771 
	C144.999176,153.085220 144.999588,151.046890 145.000305,148.535385 
	C144.938187,145.819427 144.875748,143.576614 144.813324,141.333817 
z"/>
<path fill="#055C77" opacity="1.000000" stroke="none" 
	d="
M145.000000,149.008545 
	C144.999588,151.046890 144.999176,153.085220 144.998779,155.560211 
	C143.459106,156.802750 141.919449,157.608612 140.379776,158.414490 
	C139.920349,156.457321 139.361313,154.516434 139.037430,152.537094 
	C138.830551,151.272827 138.971481,149.951645 138.935577,148.185486 
	C140.098236,146.348694 141.281754,144.982422 142.737350,143.870575 
	C143.672943,145.752853 144.336472,147.380707 145.000000,149.008545 
z"/>
<path fill="#00A9BB" opacity="1.000000" stroke="none" 
	d="
M184.955627,78.995377 
	C186.017380,77.642761 187.079117,76.290146 188.615570,75.398071 
	C189.348328,77.981186 189.810181,80.101868 189.830017,82.226662 
	C189.928879,92.819603 189.911560,103.413635 189.935120,114.007278 
	C188.904602,114.849144 187.874100,115.691017 186.843597,116.532890 
	C186.262650,115.290535 185.472046,114.098076 185.161102,112.791466 
	C184.864166,111.543671 185.066605,110.177048 185.047516,107.963898 
	C185.011154,101.707024 184.976822,96.348907 184.986435,90.532562 
	C185.005463,86.381348 184.980545,82.688362 184.955627,78.995377 
z"/>
<path fill="#005A74" opacity="1.000000" stroke="none" 
	d="
M184.942490,90.990784 
	C184.976822,96.348907 185.011154,101.707024 185.007904,107.531380 
	C183.439560,108.465065 181.908844,108.932526 180.189056,109.699989 
	C179.533890,109.752922 179.067780,109.505844 178.341904,108.723213 
	C178.098465,106.815971 178.114807,105.444298 178.431671,104.053528 
	C179.136108,104.029694 179.540039,104.024948 180.185257,104.248688 
	C181.613083,103.088928 183.529785,101.841400 183.830215,100.282402 
	C184.409851,97.274544 184.076645,94.090782 184.327057,90.982910 
	C184.532196,90.985863 184.942490,90.990784 184.942490,90.990784 
z"/>
<path fill="#005973" opacity="1.000000" stroke="none" 
	d="
M190.211304,114.001221 
	C189.911560,103.413635 189.928879,92.819603 189.830017,82.226662 
	C189.810181,80.101868 189.348328,77.981186 188.994827,75.455070 
	C189.377945,75.038857 189.856506,75.026184 190.694214,75.012421 
	C191.078751,87.691017 191.104111,100.370720 191.084641,113.515564 
	C190.855698,113.985527 190.671585,113.990349 190.211304,114.001221 
z"/>
<path fill="#067792" opacity="1.000000" stroke="none" 
	d="
M162.545731,111.204773 
	C163.688705,105.953949 164.995697,101.099930 166.578629,96.387650 
	C166.900146,98.089424 166.945709,99.649460 167.003952,101.639557 
	C167.009857,104.374420 167.003098,106.679214 166.996338,108.984009 
	C167.008270,114.136093 167.147690,119.293121 166.948639,124.437035 
	C166.894241,125.842873 165.823502,127.209366 165.219177,128.593918 
	C164.604111,128.458115 163.989029,128.322296 163.373962,128.186493 
	C163.152542,122.658188 162.931137,117.129883 162.545731,111.204773 
z"/>
<path fill="#00819C" opacity="1.000000" stroke="none" 
	d="
M167.367737,109.081726 
	C167.003098,106.679214 167.009857,104.374420 167.360321,101.503281 
	C168.149872,99.296860 168.595749,97.656784 169.433136,96.009918 
	C170.873199,96.006767 171.921768,96.010406 172.975311,96.474091 
	C173.324295,101.033844 173.668304,105.133560 174.002350,109.340424 
	C173.992401,109.447563 173.967377,109.661308 173.967377,109.661308 
	C173.643143,111.501854 173.318909,113.342400 172.587799,115.589226 
	C171.137756,115.991882 170.094589,115.988258 169.051422,115.984642 
	C168.613983,113.716248 168.176544,111.447845 167.367737,109.081726 
z"/>
<path fill="#007D99" opacity="1.000000" stroke="none" 
	d="
M174.250885,109.864609 
	C173.967377,109.661308 173.992401,109.447563 174.001404,108.844666 
	C174.371857,100.520859 174.733292,92.799965 175.094742,85.079063 
	C175.518082,85.056458 175.941422,85.033852 176.919891,85.250549 
	C177.650818,86.659523 177.826599,87.829185 177.995758,89.465149 
	C178.036484,94.645164 178.083801,99.358894 178.131134,104.072617 
	C178.114807,105.444298 178.098465,106.815971 178.108856,108.599075 
	C176.935165,109.362968 175.734772,109.715446 174.250885,109.864609 
z"/>
<path fill="#045F7C" opacity="1.000000" stroke="none" 
	d="
M150.902435,133.706009 
	C152.049606,131.847168 153.196777,129.988312 154.654526,128.271774 
	C154.983032,128.628754 155.000946,128.843445 155.080353,129.410538 
	C155.449432,131.147415 155.757019,132.531876 156.064621,133.916351 
	C155.710678,137.969894 155.356720,142.023422 155.001938,146.938309 
	C155.000534,148.866516 154.999969,149.933395 154.999390,151.000259 
	C154.852066,151.288925 154.652695,151.535492 153.826248,151.869049 
	C152.502441,151.995728 151.753677,151.993362 151.004059,151.533905 
	C151.000717,147.716858 150.998230,144.356903 150.997070,140.543854 
	C150.966431,137.962494 150.934433,135.834259 150.902435,133.706009 
z"/>
<path fill="#076C88" opacity="1.000000" stroke="none" 
	d="
M156.430542,133.997040 
	C155.757019,132.531876 155.449432,131.147415 155.397003,129.325531 
	C155.868729,127.587891 156.085266,126.287682 156.301788,124.987465 
	C157.642746,122.046165 158.983719,119.104874 160.591156,115.933304 
	C160.901672,120.861153 160.864990,126.021683 161.018631,131.176544 
	C161.118698,134.534363 159.780258,135.404007 156.430542,133.997040 
z"/>
<path fill="#00546E" opacity="1.000000" stroke="none" 
	d="
M151.004883,151.990997 
	C151.753677,151.993362 152.502441,151.995728 153.625610,151.999283 
	C154.000000,154.482727 154.000000,156.964981 154.000000,159.447250 
	C153.556717,159.512512 153.113434,159.577774 152.670151,159.643051 
	C151.666504,158.484283 150.662857,157.325500 149.334091,156.082153 
	C149.008362,155.248962 149.007751,154.500381 149.295959,153.336456 
	C150.058167,152.611069 150.531525,152.301025 151.004883,151.990997 
z"/>
<path fill="#007795" opacity="1.000000" stroke="none" 
	d="
M169.031143,116.388229 
	C170.094589,115.988258 171.137756,115.991882 172.571838,115.992012 
	C172.555038,118.162178 172.147308,120.335846 171.739594,122.509506 
	C171.043442,122.430626 170.347305,122.351746 169.651154,122.272865 
	C169.437729,120.445854 169.224289,118.618835 169.031143,116.388229 
z"/>
<path fill="#005772" opacity="1.000000" stroke="none" 
	d="
M155.324005,150.910507 
	C154.999969,149.933395 155.000534,148.866516 155.003067,147.399597 
	C157.395370,147.906815 157.608032,149.180862 155.324005,150.910507 
z"/>
<path fill="#033854" opacity="1.000000" stroke="none" 
	d="
M169.994568,39.016167 
	C168.133255,38.270390 166.271957,37.524616 164.162231,36.558899 
	C163.913803,30.755941 163.913803,25.172918 163.913803,19.589897 
	C164.621994,19.391851 165.330200,19.193808 166.038391,18.995762 
	C167.123459,21.255054 168.208542,23.514347 169.646851,26.349705 
	C169.998245,30.955900 169.996399,34.986034 169.994568,39.016167 
z"/>
<path fill="#033D5A" opacity="1.000000" stroke="none" 
	d="
M170.091156,39.414703 
	C169.996399,34.986034 169.998245,30.955900 169.998810,26.462296 
	C170.776535,25.671068 171.555527,25.343313 172.666138,25.477913 
	C172.999100,31.159164 172.855286,36.384701 173.093369,41.592777 
	C173.161713,43.087711 174.333160,44.532223 174.998840,45.999851 
	C174.998840,48.946144 174.998840,51.892441 174.998840,55.476505 
	C173.513809,54.889709 172.569473,54.516563 171.302002,54.071190 
	C170.715164,49.270386 170.451447,44.541817 170.091156,39.414703 
z"/>
<path fill="#043A59" opacity="1.000000" stroke="none" 
	d="
M162.816422,35.595055 
	C161.022171,35.563435 159.063278,35.150734 156.810028,34.501846 
	C157.010544,29.602573 157.425232,24.928856 158.041138,20.281807 
	C158.276688,18.504498 158.972443,16.788183 159.458481,15.044073 
	C160.139603,15.144937 160.820740,15.245800 161.501877,15.346664 
	C161.885178,21.969101 162.268478,28.591537 162.816422,35.595055 
z"/>
<path fill="#003955" opacity="1.000000" stroke="none" 
	d="
M174.999222,45.562469 
	C174.333160,44.532223 173.161713,43.087711 173.093369,41.592777 
	C172.855286,36.384701 172.999100,31.159164 172.997345,25.472176 
	C173.440918,25.002144 173.884888,25.000198 174.661682,24.996099 
	C174.996490,29.353586 174.998489,33.713226 175.001770,38.537853 
	C175.001907,41.043587 175.000763,43.084335 174.999222,45.562469 
z"/>
<path fill="#043451" opacity="1.000000" stroke="none" 
	d="
M132.761871,26.914246 
	C131.602844,27.164202 130.528214,26.924078 129.193542,26.477306 
	C128.933502,21.727917 128.933502,17.185173 128.933502,12.642429 
	C129.659973,12.549341 130.386459,12.456253 131.112930,12.363166 
	C134.805649,16.349209 132.344528,21.720047 132.761871,26.914246 
z"/>
<path fill="#033351" opacity="1.000000" stroke="none" 
	d="
M117.990921,22.735069 
	C117.140671,23.087921 116.293777,22.961491 115.169983,22.668812 
	C114.748032,21.838224 114.602966,21.173889 114.227676,20.253531 
	C113.999603,17.530584 113.786354,15.037024 114.086823,12.606982 
	C114.259872,11.207442 115.263855,9.910642 115.893814,8.567595 
	C116.593193,9.841096 117.776978,11.071044 117.896172,12.396710 
	C118.189537,15.659631 117.993507,18.966555 117.990921,22.735069 
z"/>
<path fill="#043451" opacity="1.000000" stroke="none" 
	d="
M133.782593,27.662291 
	C133.634140,27.785049 133.301849,27.747307 132.812088,27.505753 
	C132.993301,27.255508 133.308014,27.322123 133.782593,27.662291 
z"/>
<path fill="#004874" opacity="1.000000" stroke="none" 
	d="
M9.005372,13.003377 
	C12.141850,11.038754 12.722609,13.187819 12.939436,15.560209 
	C13.206469,18.481913 13.278804,21.421412 13.662357,24.690500 
	C13.885737,26.414305 13.882045,27.800829 13.649865,29.906324 
	C13.268040,32.421783 13.114700,34.218269 12.568607,36.009537 
	C11.125934,36.005863 10.076014,36.007416 9.015043,35.539894 
	C9.004453,27.715006 9.004912,20.359192 9.005372,13.003377 
z"/>
<path fill="#012E4A" opacity="1.000000" stroke="none" 
	d="
M23.734325,40.953995 
	C24.067858,43.374382 24.064920,45.746357 23.659161,48.561737 
	C22.501438,49.334251 21.746542,49.663364 20.677475,49.992584 
	C19.945774,49.988457 19.528242,49.984222 19.096846,49.527431 
	C19.051159,46.051388 19.019339,43.027905 19.017090,39.750557 
	C19.073074,39.328373 19.099483,39.160046 19.125893,38.991722 
	C20.549881,39.629677 21.973867,40.267628 23.734325,40.953995 
z"/>
<path fill="#003956" opacity="1.000000" stroke="none" 
	d="
M12.961361,36.014755 
	C13.114700,34.218269 13.268040,32.421783 13.639801,30.322674 
	C14.052897,30.018730 14.247569,30.017405 14.728838,30.474886 
	C15.019873,34.292706 15.024313,37.651718 15.020842,41.459785 
	C15.012700,44.607315 15.012468,47.305782 15.005865,50.377155 
	C14.993614,51.495579 14.987734,52.241100 14.657370,52.991806 
	C13.900100,52.991093 13.467313,52.985191 13.025745,52.582443 
	C13.004261,51.126198 12.991557,50.066803 12.990229,48.544827 
	C12.988190,44.059750 12.974775,40.037254 12.961361,36.014755 
z"/>
<path fill="#00456F" opacity="1.000000" stroke="none" 
	d="
M15.028752,41.010727 
	C15.024313,37.651718 15.019873,34.292706 15.020838,30.477905 
	C17.697514,28.220715 18.649035,29.836918 18.926390,32.157444 
	C19.160681,34.117702 19.031181,36.121445 19.094294,38.548832 
	C19.099483,39.160046 19.073074,39.328373 18.678688,39.798103 
	C17.216724,40.403248 16.122738,40.706989 15.028752,41.010727 
z"/>
<path fill="#012E4A" opacity="1.000000" stroke="none" 
	d="
M27.701777,9.332086 
	C27.139988,10.221687 26.508190,10.813439 25.876392,11.405191 
	C25.669809,10.996504 25.463226,10.587815 25.256643,10.179127 
	C26.048351,9.797497 26.840057,9.415867 27.701777,9.332086 
z"/>
<path fill="#012E4A" opacity="1.000000" stroke="none" 
	d="
M26.492584,27.279865 
	C26.645475,27.962795 26.530148,28.625473 26.414818,29.288149 
	C26.047216,29.107210 25.679615,28.926271 25.312012,28.745333 
	C25.616129,28.250092 25.920248,27.754850 26.492584,27.279865 
z"/>
<path fill="#00516B" opacity="1.000000" stroke="none" 
	d="
M178.002380,88.998848 
	C177.826599,87.829185 177.650818,86.659523 177.236816,85.224686 
	C179.411133,82.980804 181.823700,81.002090 184.595947,79.009377 
	C184.980545,82.688362 185.005463,86.381348 184.986435,90.532562 
	C184.942490,90.990784 184.532196,90.985863 184.143402,90.706329 
	C182.488190,90.271988 181.221741,90.117172 179.705307,89.855133 
	C178.970993,89.498222 178.486694,89.248535 178.002380,88.998848 
z"/>
<path fill="#006385" opacity="1.000000" stroke="none" 
	d="
M168.905029,81.699402 
	C168.928101,81.025276 168.951187,80.351143 169.452728,79.344269 
	C170.949753,79.007156 171.968323,79.002800 172.986908,78.998444 
	C173.004288,80.698357 173.021652,82.398270 173.025787,84.869057 
	C173.001297,86.100220 172.990067,86.560509 172.586884,87.012672 
	C171.151688,87.014069 170.108444,87.023605 169.056610,86.590645 
	C169.000366,84.665230 168.952698,83.182320 168.905029,81.699402 
z"/>
<path fill="#005C77" opacity="1.000000" stroke="none" 
	d="
M172.978836,87.020805 
	C172.990067,86.560509 173.001297,86.100220 173.029999,85.294037 
	C173.501801,84.973228 173.956161,84.998314 174.752625,85.051239 
	C174.733292,92.799965 174.371857,100.520859 174.011353,108.737518 
	C173.668304,105.133560 173.324295,101.033844 172.987961,96.023232 
	C172.990036,92.415161 172.984436,89.717979 172.978836,87.020805 
z"/>
<path fill="#0A5874" opacity="1.000000" stroke="none" 
	d="
M172.992645,78.573639 
	C171.968323,79.002800 170.949753,79.007156 169.548950,79.018402 
	C169.384293,76.933235 169.601837,74.841179 169.940170,72.374504 
	C174.583435,72.356842 172.466370,75.885574 172.992645,78.573639 
z"/>
<path fill="#003654" opacity="1.000000" stroke="none" 
	d="
M8.683502,13.000338 
	C9.004912,20.359192 9.004453,27.715006 9.005623,35.937141 
	C8.993462,37.863857 8.979671,38.924244 8.647017,39.988300 
	C7.902837,39.985836 7.477520,39.979710 7.044028,39.506676 
	C7.009046,31.365955 6.982239,23.692144 6.955433,16.018332 
	C6.978853,15.254634 7.002272,14.490936 7.051590,13.345066 
	C7.505536,12.974361 7.933584,12.985830 8.683502,13.000338 
z"/>
<path fill="#06344B" opacity="1.000000" stroke="none" 
	d="
M152.014282,32.447906 
	C151.457245,32.822090 150.895935,32.759640 150.123215,32.503632 
	C150.389359,29.932667 150.866898,27.555262 151.672516,25.087227 
	C152.003723,27.334822 152.006851,29.673044 152.014282,32.447906 
z"/>
<path fill="#005973" opacity="1.000000" stroke="none" 
	d="
M14.830092,128.050201 
	C14.443934,128.036880 14.057775,128.023560 13.350786,127.588692 
	C12.978070,125.436005 12.926187,123.704865 12.909100,121.530960 
	C12.916270,118.717300 12.888644,116.346397 12.906267,113.510773 
	C12.929014,105.705856 12.906510,98.365662 12.932014,90.588203 
	C12.949160,88.112053 12.918297,86.073166 12.922941,83.590553 
	C12.932422,80.781387 12.906394,78.415947 12.936804,75.775940 
	C13.037337,75.319786 13.081433,75.138191 13.430232,74.974365 
	C14.142115,74.989693 14.549293,74.987244 14.980862,75.436600 
	C15.050561,78.612755 15.095870,81.337105 15.112206,84.500977 
	C15.115018,87.305237 15.146805,89.669968 15.133817,92.499084 
	C15.126116,100.296288 15.163190,107.629089 15.136328,115.404938 
	C15.104631,118.222878 15.136873,120.597771 15.122262,123.393814 
	C14.993638,125.226707 14.911865,126.638451 14.830092,128.050201 
z"/>
<path fill="#004E6A" opacity="1.000000" stroke="none" 
	d="
M7.349256,116.011795 
	C7.045331,107.328575 6.993708,98.645218 6.951203,89.070465 
	C6.928050,86.462318 6.895779,84.745560 6.913454,82.586319 
	C6.932444,79.777695 6.901488,77.411545 6.914797,74.593552 
	C6.935575,71.447495 6.912089,68.753281 6.925422,65.665283 
	C6.966145,64.480522 6.970048,63.689568 7.312617,62.985428 
	C8.116885,64.056511 8.582489,65.040779 9.034206,66.477966 
	C9.028640,69.959900 9.036959,72.988914 9.020953,76.460724 
	C9.014309,79.273849 9.031989,81.644173 9.016870,84.449982 
	C9.003367,86.926590 9.022663,88.967712 8.997866,91.475174 
	C8.986236,98.959320 9.018699,105.977150 8.993948,113.373825 
	C8.828235,114.509308 8.719735,115.265930 8.611237,116.022552 
	C8.274676,116.018921 7.938117,116.015289 7.349256,116.011795 
z"/>
<path fill="#00A4BB" opacity="1.000000" stroke="none" 
	d="
M8.692612,116.443283 
	C8.719735,115.265930 8.828235,114.509308 9.320044,113.423080 
	C10.755909,113.387482 11.808463,113.681488 12.861017,113.975494 
	C12.888644,116.346397 12.916270,118.717300 12.525969,121.539314 
	C11.080973,121.991989 10.053903,121.993553 9.026834,121.995110 
	C8.942553,120.284744 8.858271,118.574371 8.692612,116.443283 
z"/>
<path fill="#0089A7" opacity="1.000000" stroke="none" 
	d="
M18.885279,129.965271 
	C18.909401,131.563492 19.125736,133.188248 18.909798,134.753342 
	C18.629477,136.785049 17.778845,138.269516 15.254004,136.160217 
	C14.989342,133.953873 14.982714,131.907654 15.348791,129.476898 
	C16.776091,129.383331 17.830685,129.674301 18.885279,129.965271 
z"/>
<path fill="#0098B1" opacity="1.000000" stroke="none" 
	d="
M8.973579,122.421539 
	C10.053903,121.993553 11.080973,121.991989 12.491173,121.982071 
	C12.926187,123.704865 12.978070,125.436005 13.061117,127.599495 
	C8.901489,129.187973 8.901489,129.187973 8.973579,122.421539 
z"/>
<path fill="#0097B1" opacity="1.000000" stroke="none" 
	d="
M18.918158,129.552917 
	C17.830685,129.674301 16.776091,129.383331 15.395573,129.040680 
	C15.069650,128.988998 14.950676,128.519424 14.890385,128.284821 
	C14.911865,126.638451 14.993638,125.226707 15.491508,123.401154 
	C16.897289,122.984406 17.886972,122.981461 18.923698,123.315445 
	C19.027214,124.102470 19.083683,124.552551 19.140152,125.002640 
	C19.077112,126.381943 19.014074,127.761246 18.918158,129.552917 
z"/>
<path fill="#009DB7" opacity="1.000000" stroke="none" 
	d="
M6.863507,83.028801 
	C6.895779,84.745560 6.928050,86.462318 6.903822,88.606064 
	C5.820997,89.325287 4.794672,89.617538 3.453979,89.968269 
	C3.118126,87.987587 3.096640,85.948425 3.474876,83.462402 
	C4.870901,83.019958 5.867204,83.024376 6.863507,83.028801 
z"/>
<path fill="#004C78" opacity="1.000000" stroke="none" 
	d="
M6.643089,16.085432 
	C6.982239,23.692144 7.009046,31.365955 7.024443,39.849335 
	C6.991089,41.115650 6.969146,41.572399 6.612357,42.072548 
	C5.199651,42.420101 4.121790,42.724255 3.043930,43.028412 
	C3.027803,42.571198 3.011676,42.113979 2.978476,41.313484 
	C2.980207,33.628407 2.999012,26.286602 3.027239,18.477160 
	C4.134690,17.390524 5.232718,16.771528 6.643089,16.085432 
z"/>
<path fill="#008FAC" opacity="1.000000" stroke="none" 
	d="
M6.913454,82.586319 
	C5.867204,83.024376 4.870901,83.019958 3.502984,83.026886 
	C3.082956,81.631783 3.034542,80.225319 2.952636,78.397720 
	C2.955690,77.542839 2.992238,77.109077 3.375675,76.292969 
	C4.771888,75.622215 5.821210,75.333809 6.870533,75.045403 
	C6.901488,77.411545 6.932444,79.777695 6.913454,82.586319 
z"/>
<path fill="#005983" opacity="1.000000" stroke="none" 
	d="
M3.035893,43.488922 
	C4.121790,42.724255 5.199651,42.420101 6.623526,42.532520 
	C6.978850,46.969170 6.988159,50.989246 6.993289,55.271240 
	C6.978970,55.707489 6.968829,55.881828 6.565120,56.037331 
	C5.122355,56.017109 4.073158,56.015720 3.023962,56.014332 
	C3.025260,51.992699 3.026559,47.971066 3.035893,43.488922 
z"/>
<path fill="#006A91" opacity="1.000000" stroke="none" 
	d="
M3.016768,56.411331 
	C4.073158,56.015720 5.122355,56.017109 6.583600,56.298626 
	C7.010310,56.753471 7.024973,56.928192 7.022209,57.389317 
	C6.995078,58.061039 6.985374,58.446354 6.975582,59.216171 
	C6.975796,60.113373 6.976098,60.626064 6.979445,61.432747 
	C6.979644,62.117355 6.976798,62.507984 6.973952,62.898609 
	C6.970048,63.689568 6.966145,64.480522 6.599623,65.699295 
	C5.180910,66.430702 4.124814,66.734299 3.068719,67.037888 
	C3.046365,64.981651 3.024012,62.925411 2.989839,60.428413 
	C2.988537,58.927876 2.999055,57.868103 3.016768,56.411331 
z"/>
<path fill="#007EA0" opacity="1.000000" stroke="none" 
	d="
M3.053399,67.484665 
	C4.124814,66.734299 5.180910,66.430702 6.562804,66.093094 
	C6.912089,68.753281 6.935575,71.447495 6.914797,74.593552 
	C5.821210,75.333809 4.771888,75.622215 3.399583,75.967239 
	C3.063760,73.326393 3.050919,70.628922 3.053399,67.484665 
z"/>
<path fill="#0E2331" opacity="1.000000" stroke="none" 
	d="
M37.398918,94.430923 
	C36.037838,79.141655 34.816933,64.249619 33.573257,49.359474 
	C33.317150,46.293156 34.831367,45.138340 37.708515,44.334126 
	C56.296085,39.138535 74.807953,33.672302 93.390541,28.458410 
	C95.666878,27.819714 98.388992,27.527262 100.611168,28.139341 
	C115.205765,32.159290 129.720642,36.468849 144.259628,40.690426 
	C149.057999,42.083691 153.895187,43.367664 158.612396,44.997540 
	C159.686935,45.368809 161.059845,46.954643 161.077606,48.002110 
	C161.513092,73.681915 159.692078,98.969864 146.895309,122.117516 
	C137.100113,139.835724 121.402184,151.177338 104.668030,161.546783 
	C99.564957,164.708939 95.680367,164.648026 90.595726,161.483994 
	C72.560638,150.261185 55.660080,137.902390 46.164299,118.149818 
	C42.588535,110.711716 40.368893,102.621674 37.398918,94.430923 
M124.389381,70.555977 
	C118.646698,77.462074 112.852798,84.326881 107.216049,91.318398 
	C106.362030,92.377678 105.510078,94.284477 105.891930,95.361473 
	C109.169647,104.606003 110.324654,114.101578 109.963814,123.842537 
	C109.900902,125.540886 109.954903,127.243568 109.954903,129.925690 
	C112.097328,128.094421 113.239532,127.118111 114.381729,126.141800 
	C114.664276,126.358246 114.946815,126.574692 115.229355,126.791138 
	C114.536041,129.076004 113.842720,131.360870 113.189301,133.514267 
	C122.863533,123.480118 132.417358,113.570854 141.863586,103.773201 
	C141.863586,94.639198 141.863586,84.917961 141.863586,75.023972 
	C136.031235,73.337517 130.535690,71.748466 124.389381,70.555977 
M79.498146,60.116829 
	C89.898048,77.084213 89.895195,93.951645 78.978745,110.693130 
	C77.469727,113.007355 76.492287,115.667557 79.507019,116.955887 
	C80.855759,117.532249 83.950417,116.299568 85.010292,114.927864 
	C97.376656,98.923096 97.674126,71.576744 85.606987,55.580055 
	C84.460709,54.060509 81.071175,52.747425 79.499321,53.353069 
	C76.499046,54.509094 77.352074,57.302120 79.498146,60.116829 
M134.573761,47.887344 
	C131.055115,52.754093 127.536476,57.620846 123.141167,63.700146 
	C131.566055,66.402191 138.375275,68.586052 145.674377,70.927032 
	C146.582153,63.790119 147.315598,58.023830 148.038635,52.339302 
	C143.500839,50.806366 139.429169,49.430897 134.573761,47.887344 
M64.243202,105.061508 
	C66.124329,104.972984 68.764297,105.658218 69.767418,104.674431 
	C78.367920,96.239723 78.526443,74.671844 70.091827,66.236038 
	C69.036278,65.180344 66.627090,65.478096 64.845108,65.148735 
	C64.672966,66.894600 63.702827,69.168266 64.453743,70.303627 
	C71.020622,80.232559 70.357193,89.996796 64.659554,99.962013 
	C63.938301,101.223488 64.082748,102.979942 64.243202,105.061508 
M50.779716,75.018494 
	C50.441338,76.871315 49.898766,78.714355 49.809391,80.579117 
	C49.650040,83.903908 49.646000,87.247818 49.813992,90.571762 
	C49.899487,92.263382 50.500343,93.928963 50.868233,95.606316 
	C52.634789,94.867249 55.568195,94.504623 55.950665,93.319046 
	C57.131588,89.658440 58.066463,85.612885 57.699093,81.853424 
	C57.395927,78.751030 56.324932,74.742111 50.779716,75.018494 
z"/>
<path fill="#076485" opacity="1.000000" stroke="none" 
	d="
M23.830194,61.993408 
	C24.416330,66.399002 25.002468,70.804596 25.259659,75.487801 
	C23.626568,74.843674 22.322422,73.921944 21.012518,72.562057 
	C20.995237,70.076447 20.983715,68.028976 20.978828,65.585121 
	C20.998882,64.132706 21.012297,63.076672 21.376259,62.016132 
	C22.427937,62.005550 23.129065,61.999481 23.830194,61.993408 
z"/>
<path fill="#004F79" opacity="1.000000" stroke="none" 
	d="
M23.895679,61.533188 
	C23.129065,61.999481 22.427937,62.005550 21.363148,61.553314 
	C20.996872,57.394161 20.994259,53.693321 20.991646,49.992477 
	C21.746542,49.663364 22.501438,49.334251 23.579304,48.999512 
	C23.921904,53.020245 23.941534,57.046604 23.895679,61.533188 
z"/>
<path fill="#005871" opacity="1.000000" stroke="none" 
	d="
M169.041626,96.016708 
	C168.595749,97.656784 168.149872,99.296860 167.347626,101.073212 
	C166.945709,99.649460 166.900146,98.089424 166.794678,96.071609 
	C167.025467,93.626778 167.316177,91.639740 168.042908,89.323196 
	C168.656036,88.994896 168.833160,88.996109 169.011841,89.435425 
	C169.022812,91.921257 169.032227,93.968987 169.041626,96.016708 
z"/>
<path fill="#045770" opacity="1.000000" stroke="none" 
	d="
M150.622757,133.892761 
	C150.934433,135.834259 150.966431,137.962494 150.664520,140.544647 
	C149.887070,140.998627 149.443527,140.998703 149.000000,140.998779 
	C148.515945,140.369095 148.031891,139.739426 147.236206,139.039673 
	C148.064072,137.339569 149.203583,135.709549 150.622757,133.892761 
z"/>
<path fill="#076485" opacity="1.000000" stroke="none" 
	d="
M26.083462,82.584404 
	C25.288065,83.003059 24.543167,83.002251 23.411453,82.999939 
	C23.024639,82.998428 23.001913,82.999695 23.002857,82.582748 
	C23.013069,80.775551 23.022337,79.385300 23.358681,77.995140 
	C24.339880,77.995247 24.994001,77.995262 25.648125,77.995277 
	C25.810070,79.385162 25.972015,80.775055 26.083462,82.584404 
z"/>
<path fill="#046784" opacity="1.000000" stroke="none" 
	d="
M25.704193,77.657234 
	C24.994001,77.995262 24.339880,77.995247 23.203648,77.693062 
	C22.153784,75.927330 21.586029,74.463768 21.018276,73.000206 
	C22.322422,73.921944 23.626568,74.843674 25.210129,75.877319 
	C25.579784,76.432556 25.670023,76.875870 25.704193,77.657234 
z"/>
<path fill="#00546E" opacity="1.000000" stroke="none" 
	d="
M145.000305,148.535385 
	C144.336472,147.380707 143.672943,145.752853 143.010010,143.745300 
	C143.412872,142.807007 143.815170,142.248398 144.515396,141.511810 
	C144.875748,143.576614 144.938187,145.819427 145.000305,148.535385 
z"/>
<path fill="#0B5C71" opacity="1.000000" stroke="none" 
	d="
M169.010269,88.997314 
	C168.833160,88.996109 168.656036,88.994896 168.213257,88.989716 
	C168.124771,86.792130 168.301941,84.598518 168.692078,82.052155 
	C168.952698,83.182320 169.000366,84.665230 169.040741,86.917145 
	C169.025742,88.123199 169.018005,88.560257 169.010269,88.997314 
z"/>
<path fill="#005871" opacity="1.000000" stroke="none" 
	d="
M156.095032,125.229050 
	C156.085266,126.287682 155.868729,127.587891 155.335541,128.973114 
	C155.000946,128.843445 154.983032,128.628754 154.934280,128.092529 
	C155.231720,127.004204 155.559998,126.237419 156.095032,125.229050 
z"/>
<path fill="#13899E" opacity="1.000000" stroke="none" 
	d="
M31.868166,108.828430 
	C31.646790,108.798485 31.473345,108.502052 31.332539,107.944481 
	C31.548819,107.976204 31.732458,108.269073 31.868166,108.828430 
z"/>
<path fill="#005A74" opacity="1.000000" stroke="none" 
	d="
M19.435204,125.001923 
	C19.083683,124.552551 19.027214,124.102470 18.963430,122.873535 
	C18.928015,119.721237 18.899912,117.347771 18.911074,114.508804 
	C18.923178,106.704384 18.896019,99.365463 18.919926,91.576309 
	C18.930029,88.415619 18.889067,85.705154 18.934361,83.006165 
	C19.020620,83.017632 19.194014,83.032562 19.572529,83.021759 
	C20.967999,83.007202 21.984957,83.003448 23.001913,82.999695 
	C23.001913,82.999695 23.024639,82.998428 23.039318,83.000122 
	C23.034563,84.735519 23.015125,86.469223 22.990915,88.638885 
	C22.339600,91.122215 21.693058,93.169594 21.098650,95.618546 
	C21.125504,102.695114 21.100224,109.370125 21.122877,116.509544 
	C21.110107,119.353745 21.049402,121.733528 20.949795,124.557419 
	C20.517345,125.001419 20.123800,125.001312 19.435204,125.001923 
z"/>
<path fill="#005871" opacity="1.000000" stroke="none" 
	d="
M148.999603,141.459564 
	C149.443527,140.998703 149.887070,140.998627 150.663162,140.997742 
	C150.998230,144.356903 151.000717,147.716858 151.004059,151.533905 
	C150.531525,152.301025 150.058167,152.611069 149.297089,152.962128 
	C149.005997,149.308884 149.002594,145.614609 148.999603,141.459564 
z"/>
<path fill="#009BB1" opacity="1.000000" stroke="none" 
	d="
M179.955307,89.962357 
	C181.221741,90.117172 182.488190,90.271988 183.938263,90.703369 
	C184.076645,94.090782 184.409851,97.274544 183.830215,100.282402 
	C183.529785,101.841400 181.613083,103.088928 180.206451,103.782288 
	C179.976013,98.712379 179.965652,94.337372 179.955307,89.962357 
z"/>
<path fill="#006982" opacity="1.000000" stroke="none" 
	d="
M179.705307,89.855133 
	C179.965652,94.337372 179.976013,98.712379 179.965149,103.553802 
	C179.540039,104.024948 179.136108,104.029694 178.431671,104.053528 
	C178.083801,99.358894 178.036484,94.645164 177.995758,89.465149 
	C178.486694,89.248535 178.970993,89.498222 179.705307,89.855133 
z"/>
<path fill="#007492" opacity="1.000000" stroke="none" 
	d="
M169.011841,89.435425 
	C169.018005,88.560257 169.025742,88.123199 169.049332,87.359642 
	C170.108444,87.023605 171.151688,87.014069 172.586884,87.012672 
	C172.984436,89.717979 172.990036,92.415161 172.982971,95.563194 
	C171.921768,96.010406 170.873199,96.006767 169.433136,96.009918 
	C169.032227,93.968987 169.022812,91.921257 169.011841,89.435425 
z"/>
<path fill="#00517C" opacity="1.000000" stroke="none" 
	d="
M8.965879,39.984634 
	C8.979671,38.924244 8.993462,37.863857 9.016673,36.406216 
	C10.076014,36.007416 11.125934,36.005863 12.568607,36.009537 
	C12.974775,40.037254 12.988190,44.059750 12.597252,48.541908 
	C11.142269,49.006741 10.091640,49.011913 9.026142,48.565315 
	C8.996144,45.403908 8.981012,42.694271 8.965879,39.984634 
z"/>
<path fill="#004D77" opacity="1.000000" stroke="none" 
	d="
M15.020842,41.459785 
	C16.122738,40.706989 17.216724,40.403248 18.649113,40.051964 
	C19.019339,43.027905 19.051159,46.051388 19.062141,49.532574 
	C19.041302,49.990276 18.974245,49.998745 18.578876,49.999092 
	C17.126415,50.001045 16.069326,50.002647 15.012237,50.004250 
	C15.012468,47.305782 15.012700,44.607315 15.020842,41.459785 
z"/>
<path fill="#00415E" opacity="1.000000" stroke="none" 
	d="
M20.677475,49.992584 
	C20.994259,53.693321 20.996872,57.394161 21.012598,61.557823 
	C21.012297,63.076672 20.998882,64.132706 20.660275,65.588745 
	C19.909666,65.984344 19.484253,65.979950 19.036358,65.650826 
	C18.990540,64.892525 18.967199,64.458961 18.969276,63.586617 
	C18.978689,61.105782 18.962687,59.063725 18.966133,56.582764 
	C18.981802,54.095490 18.978024,52.047119 18.974245,49.998745 
	C18.974245,49.998745 19.041302,49.990276 19.076006,49.985134 
	C19.528242,49.984222 19.945774,49.988457 20.677475,49.992584 
z"/>
<path fill="#004A66" opacity="1.000000" stroke="none" 
	d="
M14.956470,74.984795 
	C14.549293,74.987244 14.142115,74.989693 13.401669,74.530273 
	C13.023437,71.389069 12.978472,68.709724 12.961140,65.578712 
	C12.968678,62.428654 12.948583,59.730270 12.951075,56.627495 
	C12.993951,55.141834 13.014238,54.060562 13.034526,52.979294 
	C13.467313,52.985191 13.900100,52.991093 14.666549,53.397064 
	C15.019819,54.874729 15.039428,55.952312 15.045397,57.471344 
	C15.040983,60.283314 15.050208,62.653835 15.044456,65.461319 
	C15.047990,67.945030 15.066500,69.991783 15.059416,72.406570 
	C15.008038,73.511330 14.982254,74.248062 14.956470,74.984795 
z"/>
<path fill="#005C85" opacity="1.000000" stroke="none" 
	d="
M13.025745,52.582443 
	C13.014238,54.060562 12.993951,55.141834 12.532456,56.617355 
	C10.407379,57.042038 8.723508,57.072475 7.039636,57.102909 
	C7.024973,56.928192 7.010310,56.753471 6.977168,56.317459 
	C6.968829,55.881828 6.978970,55.707489 7.355555,55.172070 
	C8.161668,52.879684 8.601337,50.948383 9.041008,49.017082 
	C10.091640,49.011913 11.142269,49.006741 12.585876,49.004486 
	C12.991557,50.066803 13.004261,51.126198 13.025745,52.582443 
z"/>
<path fill="#00567F" opacity="1.000000" stroke="none" 
	d="
M15.059036,57.029900 
	C15.039428,55.952312 15.019819,54.874729 14.991032,53.391884 
	C14.987734,52.241100 14.993614,51.495579 15.005865,50.377151 
	C16.069326,50.002647 17.126415,50.001045 18.578876,49.999092 
	C18.978024,52.047119 18.981802,54.095490 18.577837,56.576126 
	C17.133074,57.015556 16.096056,57.022728 15.059036,57.029900 
z"/>
<path fill="#00405E" opacity="1.000000" stroke="none" 
	d="
M9.026142,48.565315 
	C8.601337,50.948383 8.161668,52.879684 7.359733,54.910156 
	C6.988159,50.989246 6.978850,46.969170 6.958372,42.489120 
	C6.969146,41.572399 6.991089,41.115650 7.032618,40.316238 
	C7.477520,39.979710 7.902837,39.985836 8.647017,39.988300 
	C8.981012,42.694271 8.996144,45.403908 9.026142,48.565315 
z"/>
<path fill="#00AFC3" opacity="1.000000" stroke="none" 
	d="
M18.868860,92.026550 
	C18.896019,99.365463 18.923178,106.704384 18.543922,114.516747 
	C17.158426,114.980766 16.179344,114.971329 15.200264,114.961899 
	C15.163190,107.629089 15.126116,100.296288 15.501569,92.489975 
	C16.899017,92.019829 17.883940,92.023186 18.868860,92.026550 
z"/>
<path fill="#00AEC3" opacity="1.000000" stroke="none" 
	d="
M12.906267,113.510773 
	C11.808463,113.681488 10.755909,113.387482 9.377258,113.044220 
	C9.018699,105.977150 8.986236,98.959320 9.382603,91.472504 
	C10.835625,91.010826 11.859817,91.018150 12.884007,91.025467 
	C12.906510,98.365662 12.929014,105.705856 12.906267,113.510773 
z"/>
<path fill="#0085A5" opacity="1.000000" stroke="none" 
	d="
M14.980861,75.436600 
	C14.982254,74.248062 15.008038,73.511330 15.440906,72.395889 
	C16.868061,72.026978 17.888134,72.036774 18.924583,72.501762 
	C19.025312,76.315491 19.109663,79.674026 19.194014,83.032562 
	C19.194014,83.032562 19.020620,83.017632 18.617828,83.060287 
	C17.190416,83.422440 16.165796,83.741943 15.141178,84.061447 
	C15.095870,81.337105 15.050561,78.612755 14.980861,75.436600 
z"/>
<path fill="#007A9D" opacity="1.000000" stroke="none" 
	d="
M12.933507,66.030388 
	C12.978472,68.709724 13.023437,71.389069 13.096965,74.512497 
	C13.081433,75.138191 13.037337,75.319786 12.555414,75.759758 
	C11.093483,76.018066 10.069380,76.017998 9.045278,76.017921 
	C9.036959,72.988914 9.028640,69.959900 9.422417,66.469681 
	C10.860845,66.015785 11.897176,66.023087 12.933507,66.030388 
z"/>
<path fill="#00A1B9" opacity="1.000000" stroke="none" 
	d="
M15.112206,84.500977 
	C16.165796,83.741943 17.190416,83.422440 18.531569,83.048813 
	C18.889067,85.705154 18.930029,88.415619 18.919926,91.576309 
	C17.883940,92.023186 16.899017,92.019829 15.546344,92.025581 
	C15.146805,89.669968 15.115018,87.305237 15.112206,84.500977 
z"/>
<path fill="#008DAB" opacity="1.000000" stroke="none" 
	d="
M9.020953,76.460724 
	C10.069380,76.017998 11.093483,76.018066 12.498976,76.034317 
	C12.906394,78.415947 12.932422,80.781387 12.541450,83.578873 
	C11.099524,84.012108 10.074596,84.013306 9.049669,84.014503 
	C9.031989,81.644173 9.014309,79.273849 9.020953,76.460724 
z"/>
<path fill="#00A1B9" opacity="1.000000" stroke="none" 
	d="
M15.136328,115.404938 
	C16.179344,114.971329 17.158426,114.980766 18.504658,114.982254 
	C18.899912,117.347771 18.928015,119.721237 18.916386,122.536606 
	C17.886972,122.981461 16.897289,122.984406 15.538361,122.980011 
	C15.136873,120.597771 15.104631,118.222878 15.136328,115.404938 
z"/>
<path fill="#009FB8" opacity="1.000000" stroke="none" 
	d="
M9.016870,84.449982 
	C10.074596,84.013306 11.099524,84.012108 12.505942,84.022598 
	C12.918297,86.073166 12.949160,88.112053 12.932014,90.588203 
	C11.859817,91.018150 10.835625,91.010826 9.426696,91.006172 
	C9.022663,88.967712 9.003367,86.926590 9.016870,84.449982 
z"/>
<path fill="#00698F" opacity="1.000000" stroke="none" 
	d="
M12.961140,65.578712 
	C11.897176,66.023087 10.860845,66.015785 9.436303,66.016762 
	C8.582489,65.040779 8.116885,64.056511 7.312617,62.985428 
	C6.976798,62.507984 6.979644,62.117355 7.197181,61.244766 
	C7.266471,60.119091 7.121070,59.475380 6.975670,58.831669 
	C6.985374,58.446354 6.995078,58.061039 7.022209,57.389317 
	C8.723508,57.072475 10.407379,57.042038 12.509869,57.021744 
	C12.948583,59.730270 12.968678,62.428654 12.961140,65.578712 
z"/>
<path fill="#004E6A" opacity="1.000000" stroke="none" 
	d="
M6.975582,59.216171 
	C7.121070,59.475380 7.266471,60.119091 7.194137,60.950783 
	C6.976098,60.626064 6.975796,60.113373 6.975582,59.216171 
z"/>
<path fill="#F4F0E9" opacity="1.000000" stroke="none" 
	d="
M124.714767,70.357697 
	C130.535690,71.748466 136.031235,73.337517 141.863586,75.023972 
	C141.863586,84.917961 141.863586,94.639198 141.863586,103.773201 
	C132.417358,113.570854 122.863533,123.480118 113.189301,133.514267 
	C113.842720,131.360870 114.536041,129.076004 115.229355,126.791138 
	C114.946815,126.574692 114.664276,126.358246 114.381729,126.141800 
	C113.239532,127.118111 112.097328,128.094421 109.954903,129.925690 
	C109.954903,127.243568 109.900902,125.540886 109.963814,123.842537 
	C110.324654,114.101578 109.169647,104.606003 105.891930,95.361473 
	C105.510078,94.284477 106.362030,92.377678 107.216049,91.318398 
	C112.852798,84.326881 118.646698,77.462074 124.714767,70.357697 
M116.039261,116.642944 
	C115.293900,119.515221 114.548538,122.387497 113.803169,125.259773 
	C114.390038,125.421402 114.976898,125.583031 115.563759,125.744659 
	C116.628494,123.249306 117.646484,120.732735 118.767426,118.262886 
	C121.326591,112.624062 121.181526,105.616493 127.508636,101.794594 
	C128.393814,101.259911 128.490326,97.779396 127.658821,96.508575 
	C126.842590,95.261116 124.153267,94.276993 122.699615,94.677757 
	C121.227348,95.083656 118.973557,97.743828 119.282341,98.698372 
	C121.349617,105.088921 117.502892,110.213905 116.039261,116.642944 
z"/>
<path fill="#EFECE5" opacity="1.000000" stroke="none" 
	d="
M79.271049,59.834381 
	C77.352074,57.302120 76.499046,54.509094 79.499321,53.353069 
	C81.071175,52.747425 84.460709,54.060509 85.606987,55.580055 
	C97.674126,71.576744 97.376656,98.923096 85.010292,114.927864 
	C83.950417,116.299568 80.855759,117.532249 79.507019,116.955887 
	C76.492287,115.667557 77.469727,113.007355 78.978745,110.693130 
	C89.895195,93.951645 89.898048,77.084213 79.271049,59.834381 
z"/>
<path fill="#F1EDE6" opacity="1.000000" stroke="none" 
	d="
M134.965637,47.971382 
	C139.429169,49.430897 143.500839,50.806366 148.038635,52.339302 
	C147.315598,58.023830 146.582153,63.790119 145.674377,70.927032 
	C138.375275,68.586052 131.566055,66.402191 123.141167,63.700146 
	C127.536476,57.620846 131.055115,52.754093 134.965637,47.971382 
z"/>
<path fill="#EFEBE4" opacity="1.000000" stroke="none" 
	d="
M64.034660,104.784286 
	C64.082748,102.979942 63.938301,101.223488 64.659554,99.962013 
	C70.357193,89.996796 71.020622,80.232559 64.453743,70.303627 
	C63.702827,69.168266 64.672966,66.894600 64.845108,65.148735 
	C66.627090,65.478096 69.036278,65.180344 70.091827,66.236038 
	C78.526443,74.671844 78.367920,96.239723 69.767418,104.674431 
	C68.764297,105.658218 66.124329,104.972984 64.034660,104.784286 
z"/>
<path fill="#F0ECE5" opacity="1.000000" stroke="none" 
	d="
M51.169571,74.896561 
	C56.324932,74.742111 57.395927,78.751030 57.699093,81.853424 
	C58.066463,85.612885 57.131588,89.658440 55.950665,93.319046 
	C55.568195,94.504623 52.634789,94.867249 50.868233,95.606316 
	C50.500343,93.928963 49.899487,92.263382 49.813992,90.571762 
	C49.646000,87.247818 49.650040,83.903908 49.809391,80.579117 
	C49.898766,78.714355 50.441338,76.871315 51.169571,74.896561 
z"/>
<path fill="#00506C" opacity="1.000000" stroke="none" 
	d="
M19.572529,83.021759 
	C19.109663,79.674026 19.025312,76.315491 18.958050,72.067482 
	C19.003038,69.443855 19.030939,67.709709 19.058838,65.975555 
	C19.484253,65.979950 19.909666,65.984344 20.653637,65.985123 
	C20.983715,68.028976 20.995237,70.076447 21.012518,72.562057 
	C21.586029,74.463768 22.153784,75.927330 22.876572,77.692970 
	C23.022337,79.385300 23.013069,80.775551 23.002857,82.582748 
	C21.984957,83.003448 20.967999,83.007202 19.572529,83.021759 
z"/>
<path fill="#007095" opacity="1.000000" stroke="none" 
	d="
M19.036358,65.650826 
	C19.030939,67.709709 19.003038,69.443855 18.941671,71.612289 
	C17.888134,72.036774 16.868061,72.026978 15.466499,72.027863 
	C15.066500,69.991783 15.047990,67.945030 15.374395,65.403549 
	C16.794159,64.614342 17.869009,64.319862 18.943859,64.025391 
	C18.967199,64.458961 18.990540,64.892525 19.036358,65.650826 
z"/>
<path fill="#006189" opacity="1.000000" stroke="none" 
	d="
M18.969276,63.586617 
	C17.869009,64.319862 16.794159,64.614342 15.389372,64.966591 
	C15.050208,62.653835 15.040983,60.283314 15.045397,57.471344 
	C16.096056,57.022728 17.133074,57.015556 18.558388,57.015022 
	C18.962687,59.063725 18.978689,61.105782 18.969276,63.586617 
z"/>
<path fill="#112633" opacity="1.000000" stroke="none" 
	d="
M116.146210,116.252182 
	C117.502892,110.213905 121.349617,105.088921 119.282341,98.698372 
	C118.973557,97.743828 121.227348,95.083656 122.699615,94.677757 
	C124.153267,94.276993 126.842590,95.261116 127.658821,96.508575 
	C128.490326,97.779396 128.393814,101.259911 127.508636,101.794594 
	C121.181526,105.616493 121.326591,112.624062 118.767426,118.262886 
	C117.646484,120.732735 116.628494,123.249306 115.563759,125.744659 
	C114.976898,125.583031 114.390038,125.421402 113.803169,125.259773 
	C114.548538,122.387497 115.293900,119.515221 116.146210,116.252182 
z"/>
</svg>